<svg xmlns="http://www.w3.org/2000/svg" data-name="Layer 1" viewBox="0 0 3000 3000" width="550" height="550"><path fill="#34234d" d="m317 2143.39 1455-463.48c313.7-405 344.78-898.08 113.76-1188.18-173.1-217.38-528-364.34-733.13-252.81-159.66 86.82-122.2 272.48-316 379.21-192.09 105.78-309-32.47-455 63.2-235.92 154.57-247.35 722.86-75.84 973.3 17.44 25.47 59 80.06 75.84 164.33 25.59 127.88-21.33 245.46-64.63 324.43Z" opacity=".14" class="color34234d svgShape"></path><g data-name="floor"><path fill="#34234d" d="m1230.82 2799.32-2.69-1.91-925.43-656.75 1549.72-476.84 2.41 1.43 956 567.64ZM330.94 2145.2l901.82 640 1548.56-555.15-930.53-552.5Z" opacity=".33" class="color34234d svgShape"></path><path fill="#34234d" d="M862.18 2268.25h1592.15v12.15H862.18z" opacity=".33" transform="rotate(-20.47 1657.763 2273.864)" class="color34234d svgShape"></path><path fill="#34234d" d="M507.48 2020.5h1655.54v12.64H507.48z" opacity=".33" transform="rotate(-20.09 1335.33 2026.922)" class="color34234d svgShape"></path><path fill="#34234d" d="M1260.11 1734.85h12.64v1128.88h-12.64z" opacity=".33" transform="rotate(-55.95 1266.59 2299.4)" class="color34234d svgShape"></path><path fill="#34234d" d="M1803.64 1532.6h12.64v1128.89h-12.64z" opacity=".33" transform="rotate(-55.95 1810.152 2097.122)" class="color34234d svgShape"></path></g><g data-name="legs man 2"><path fill="#f7bd84" d="m1451.12 1868.66 302.1 189 309.67-30.88-273.13-220.2s-274.99 5.58-338.64 62.08Z" class="colorf7bd84 svgShape"></path><path fill="#ffa599" d="M1275.92 2164.64s25.19 56.7 25.19 70.88-37.78 70.89 0 70.89 100.76-14.18 88.16-56.71-37.78-113.42-37.78-113.42Z" class="colorffa599 svgShape"></path><path fill="#34234d" d="M1404.16 2274.89c-2 11.37-7.31 22.58-14.74 29.94-10.12 10-18.94 7.64-49.61 14.18a194.59 194.59 0 0 0-23.78 6.36c-8 2.76-13.49 4.88-15.61 5.72-5.69 2.24-36.93 14.52-65.45 3.67-5.07-1.92-29.16-11.09-31.55-29.93a23.41 23.41 0 0 1-.18-3.72c.38-13 11.11-23.18 12.57-24.63 10.86-10.76 21.33-8.18 37.21-14.18 9.55-3.61 23-11.06 37.21-28.35-10.09-15.43-7.94-33.49 1.44-41 12.71-10.12 36.95.56 42.54 14.18 6.53 15.93-13.53 33.32-6.79 40.95 4.66 5.29 19.61 3 27.8-5.31s9.21-19.83 9.4-23c0 0 34.66 22.84 37.19 28.35 3.48 7.56 4.05 17.22 2.35 26.77Z" class="color34234d svgShape"></path><path fill="#1e152d" d="M1404.16 2274.89c.94 1.86 8.94 18.34.93 31.52-7 11.46-21.76 13.34-28.35 14.17-17.66 2.24-23.72-5.76-36.93-1.57-9.86 3.12-10.85 9.7-19.78 15.75-33.81 22.88-82.38 1.24-85.06 0-8.74-4-29.51-13.54-31.55-29.93a23.41 23.41 0 0 1-.18-3.72c12.78 8.73 37.79 21.3 75 20.26 56.7-1.58 42.53-26.78 113.41-42.53a70.63 70.63 0 0 0 12.51-3.95Z" class="color1e152d svgShape"></path><path fill="#ffa599" d="M1454.75 2028.32s24 54 24 67.45-36 67.45 0 67.45 95.87-13.49 83.88-54-35.95-107.92-35.95-107.92Z" class="colorffa599 svgShape"></path><path fill="#34234d" d="M1576.77 2133.22c-1.93 10.83-7 21.5-14 28.5-9.62 9.51-18 7.27-47.2 13.49a185.29 185.29 0 0 0-22.63 6.05c-7.57 2.62-12.83 4.65-14.85 5.44-5.41 2.13-35.14 13.82-62.28 3.49-4.83-1.82-27.74-10.55-30-28.47a22.38 22.38 0 0 1-.17-3.54c.36-12.41 10.57-22.06 12-23.44 10.33-10.24 20.3-7.78 35.41-13.49 9.08-3.43 21.86-10.52 35.4-27-2.28-21.81 4-38.46 11.79-40.47 8.47-2.17 20.9 12.26 23.6 27 2.5 13.58-4.35 21.57 0 27 4.73 5.9 18.31 3.19 26.45-5.05 7.78-7.86 8.77-18.87 9-21.93 0 0 33 21.73 35.39 27 3.17 7.2 3.71 16.34 2.09 25.42Z" class="color34234d svgShape"></path><path fill="#1e152d" d="M1576.77 2133.22c.89 1.78 8.51 17.46.88 30-6.63 10.9-20.71 12.69-27 13.48-16.8 2.14-22.57-5.47-35.13-1.49-9.38 3-10.33 9.23-18.82 15-32.18 21.78-78.38 1.18-80.94 0-8.32-3.84-28.08-12.88-30-28.47a22.38 22.38 0 0 1-.17-3.54c12.16 8.3 36 20.26 71.41 19.27 54-1.49 40.47-25.48 107.91-40.46a67.07 67.07 0 0 0 11.86-3.79Z" class="color1e152d svgShape"></path><path fill="#00a1cc" d="M1369.53 1762.51s-17.8-106.74 43.31-154.48c26-20.31 56.08-22.09 74.75-22.61 134.18-3.74 323.83 35.86 386.86 49.66 99.14 43.3 127.75 151.87 93.16 207.5-33.5 53.89-138 76.91-220.85 14.3-19.15-22.43-65.6-59.51-133.45-88.18-40.81-17.25-75.42-20.83-96.21-6.19-47.22 33.26-35.45 169.25 59 324.67l-118.06-59s-118.04-118.09-88.51-265.67Z" class="color00a1cc svgShape"></path><path fill="#00b5f4" d="M1753.22 2057.66c-66.6-4.93-107.64-46.32-169.71-91-45.87-33-115.93-77-214-115.6l59 295.15s-22.13 8.2-51.65 16c-7.38 1.94-54.79 13.38-95.92 13.52h-29.52A1377.76 1377.76 0 0 1 1178 1831.6c-10.06-121.74 4.26-145.44 14.48-157.63 82.47-98.34 358.28 4 465.85 43.87A1404.26 1404.26 0 0 1 1873.16 1819c2.69.68 66.17 17.77 81.75 72.32 14.63 51.18-18.87 114.54-83.63 136.87-26.87 15.11-68.65 33.13-118.06 29.47Z" class="color00b5f4 svgShape"></path><path fill="#7d7d89" d="M1203.79 1854.07c-10-121.74 4.26-145.44 14.49-157.63 82.47-98.34 358.27 4 465.84 43.87a1404.86 1404.86 0 0 1 189 86.49c0-2.61.05-5.23.07-7.84a1404.26 1404.26 0 0 0-214.88-101.12c-107.57-39.91-383.38-142.21-465.85-43.87-10.22 12.19-24.54 35.89-14.48 157.63a1377.76 1377.76 0 0 0 73.51 344.12h18.16a1377.2 1377.2 0 0 1-65.86-321.65Z" opacity=".33" class="color7d7d89 svgShape"></path><path fill="#7d7d89" d="M1367.55 1856.88a82.65 82.65 0 0 1 6.28-50.56h6.36a127.76 127.76 0 0 0-6.36 15.8 129.55 129.55 0 0 0-6.28 34.76Z" opacity=".37" class="color7d7d89 svgShape"></path><path fill="#7d7d89" d="M1368.2 1850.05a82.67 82.67 0 0 1 25-44.38l5.89 2.41a128.48 128.48 0 0 0-30.9 42Z" opacity=".46" class="color7d7d89 svgShape"></path></g><g data-name="table 2"><path fill="#1e152d" d="m2369.24 1356.05-519.53-272 .11-2.19 28.76-602.26Zm-512.46-276L2352 1339.27l-467.71-835.42Z" class="color1e152d svgShape"></path><path fill="#34234d" d="m936.64 1788.75 1446.23-472.24v59L936.64 1847.78Z" class="color34234d svgShape"></path><path fill="#49326d" d="m464.4 1523.11 1387.2-442.72 531.28 236.12-1446.24 472.24-472.24-265.64z" class="color49326d svgShape"></path><path fill="#ffc9c0" d="m1291.71 1373.74-63.2-25.28 164.32-50.56 37.92 37.92-139.04 37.92z" class="colorffc9c0 svgShape"></path><path fill="#ff5169" d="m1291.65 1374.81-.32-.12-65.89-26.36 167.68-51.59 39.6 39.6Zm-60.08-26.23 60.2 24.08 137-37.36-36.25-36.25Z" class="colorff5169 svgShape"></path><path fill="#ffffff" d="m1253.79 1310.54 37.92 63.2 139-37.92q-19.3-32-38.62-63.91Z" class="colorfff svgShape"></path><path fill="#ff5169" d="m1291.23 1374.93-39-65 140.38-39.19 39.73 65.73Zm-35.88-63.77 36.84 61.39 137-37.36-37.52-62.08Z" class="colorff5169 svgShape"></path><path fill="#ffffff" d="m943.47 1315-31.14-311.38a93.11 93.11 0 0 1 65.26-98.25L1447 761c56.57-17.4 114.81 21.7 120.11 80.65q13.8 153.61 27.61 307.22a93.09 93.09 0 0 1-64.44 97l-465.86 148.6c-56.42 17.98-115.06-20.54-120.95-79.47Z" class="colorfff svgShape"></path><path fill="#ff5169" d="M1036 1399.93a94.23 94.23 0 0 1-93.56-84.8l-31.14-311.38a94.42 94.42 0 0 1 66-99.33L1446.68 760a94.12 94.12 0 0 1 121.42 81.53l27.62 307.22a93.57 93.57 0 0 1-65.15 98.09l-465.86 148.6a94.53 94.53 0 0 1-28.71 4.49Zm438.46-642.09a92.4 92.4 0 0 0-27.19 4.11L977.89 906.38a92.35 92.35 0 0 0-64.54 97.17l31.14 311.38a92.06 92.06 0 0 0 119.6 78.56L1530 1244.9a91.53 91.53 0 0 0 63.73-96l-27.61-307.22a92.16 92.16 0 0 0-91.6-83.87Z" class="colorff5169 svgShape"></path><path fill="#34234d" d="m464.4 1523.11 472.24 265.64v59.03L464.4 1582.14v-59.03z" class="color34234d svgShape"></path><path fill="#1e152d" d="m946.13 1828.35-483.6-272V800.68Zm-476.58-276.14 460.87 259.25L469.55 832.1Z" class="color1e152d svgShape"></path><path fill="#ffa599" d="m659.7 807.73 935.38-252.8 164.32 25.28-910.1 265.44Z" class="colorffa599 svgShape"></path><path fill="#ff6666" d="M659.7 807.73v50.56l189.6 37.93v-50.57l-189.6-37.92z" class="colorf66 svgShape"></path><path fill="#ff6666" d="m849.3 896.22 910.1-265.45v-50.56L849.3 845.65Z" class="colorf66 svgShape"></path><path fill="#00b5f4" d="M994.77 723q-1.2 7.59-2.41 15.18l-2.73 17.24a62.16 62.16 0 0 1-5.54 17.7c-7.1 14.38-19.36 23.6-33 23.6H847.63c-18.69 0-34.81-17.36-38.56-41.55l-5-32.43a70 70 0 0 1-.75-13.56c.61-13.35 5.13-25.54 12.15-34.42a44 44 0 0 1 4-4.38c6.45-6.24 14.43-10 23.19-10h113.6c10.47 0 19.8 5.31 26.73 13.85 7.41 9 12.11 21.74 12.6 35.6a68 68 0 0 1-.82 13.17Z" class="color00b5f4 svgShape"></path><path fill="#008aaa" d="M995.57 709.85a63.71 63.71 0 0 0-6-25q-1.83 11.63-3.68 23.24c-3.81 24.07-19.89 41.31-38.52 41.31H844c-18.71 0-34.83-17.37-38.56-41.56-.38-2.41-.75-4.81-1.12-7.22a66.31 66.31 0 0 0-.95 8.56 68.57 68.57 0 0 0 .74 13.57q2.51 16.2 5 32.42c3.73 24.19 19.85 41.56 38.56 41.56H951.1c18.62 0 34.71-17.24 38.52-41.31q2.58-16.21 5.14-32.42a69.72 69.72 0 0 0 .81-13.15Z" opacity=".54" class="color008aaa svgShape"></path><path fill="#dce8ef" d="m992.36 738.16-2.73 17.24a62.16 62.16 0 0 1-5.54 17.7l-1.74.26c-45.93 6.34-84.53-40.72-91.33-61.72-5.44-16.8 1-41.88 3.78-51.24.7-2.34 1.16-3.7 1.16-3.7l1.2 3.7c9.33 28.66 13.84 39.23 48.32 61.48 19.43 12.54 35.87 15.87 46.88 16.28Z" opacity=".53" class="colordce8ef svgShape"></path><path fill="#8bb5c9" d="m928.63 796.6-81 .1c-18.69 0-34.81-17.36-38.56-41.55l-5-32.43a70 70 0 0 1-.75-13.56c.61-13.35 5.13-25.54 12.15-34.42a44 44 0 0 1 4-4.38c.1 10.07 1.67 49.68 32.44 84.38 29.42 33.26 66.4 40.26 76.72 41.86Z" opacity=".56" class="color8bb5c9 svgShape"></path><path fill="#00a1cc" d="M983 674.25c-2.28 5.32-8.42 10.38-9.89 11.58-16.66 13.68-33.51 7.92-73.25 7.25-46.27-.77-66.5 6.27-79.05-8.94a28.06 28.06 0 0 1-5.31-9.4c7-8.83 16.51-14.34 27.16-14.34h113.57c10.47 0 19.77 5.31 26.77 13.85Z" class="color00a1cc svgShape"></path><path fill="#008aaa" d="M956.6 673.91c-1.62 3.8-6 7.4-7.05 8.26-11.88 9.75-23.89 5.65-52.23 5.17-33-.55-47.42 4.47-56.37-6.38a20.15 20.15 0 0 1-3.79-6.7c5-6.29 11.77-10.22 19.37-10.22h81c7.47-.04 14.13 3.78 19.07 9.87Z" class="color008aaa svgShape"></path><path fill="#34234d" d="M844.91 671c0 3.35-4.81 8.29-10.32 10.14-5.86 2-12.52.47-15.1-10.14 0-.25-.11-.51-.17-.77-1.37-6.4-7-11.38-14.22-15.23-1.86-1-3.82-1.9-5.86-2.75-3-1.24-6.11-2.32-9.23-3.28a170.9 170.9 0 0 0-28.82-5.87s9.69-9.69 33.1-4.85a93 93 0 0 1 15.71 4.86c1.92.76 3.74 1.54 5.47 2.31l1 .43 13.84 7.57c10.59 7.09 13.51 13.14 14.31 15.94a6.65 6.65 0 0 1 .29 1.64Z" class="color34234d svgShape"></path><path fill="#34234d" d="M849.6 681.33s-8.07 4-15-.18a16 16 0 0 1-5.92-6.79s.3-1.22.66-3.35a80.6 80.6 0 0 0 1-17.59c-.07-1.24-.17-2.52-.32-3.83a61.42 61.42 0 0 0-1.05-6.48 50.53 50.53 0 0 0-7.22-17.59c-2-3-4-5.69-5.94-8.14-11.72-14.65-22-19.77-22-19.77s40.68 13.56 48.52 34c.11.29.22.59.32.88.93 2.83 1.75 5.77 2.45 8.76a160.63 160.63 0 0 1 3 17.57c.35 3 .63 5.78.83 8.37.67 8.32.67 14.14.67 14.14ZM998.44 608.47c-.43.21-14.11 7.27-27.82 27.78l-.08.12a49 49 0 0 0-6.42 14.3 60.07 60.07 0 0 0-1.52 7.2c-.12.73-.21 1.44-.29 2.15a78.27 78.27 0 0 0-.08 16.83 68.75 68.75 0 0 0 1.27 8.15l.06.24c-7 13.95-20.93 7-20.93 7V691c.05-2.9.28-10.59 1.32-19.89.31-2.77.7-5.69 1.18-8.67.1-.64.21-1.28.32-1.93a118.76 118.76 0 0 1 4-16.67c0-.15.09-.3.14-.44a25.94 25.94 0 0 1 3.91-7.26c12.44-16.72 44.28-27.45 44.94-27.67Z" class="color34234d svgShape"></path><path fill="#34234d" d="M943.31 643.12a64 64 0 0 0 2.15 17.34c.2.78.41 1.54.63 2.27a85.57 85.57 0 0 0 3.18 8.94c.46 1.08.9 2.06 1.31 2.92 1.26 2.67 2.18 4.21 2.18 4.21a19.93 19.93 0 0 1-.87 3.33 13.44 13.44 0 0 1-9.25 8.82 19.32 19.32 0 0 1-7.91.58 213.63 213.63 0 0 1-5.66-25.53c-.25-1.59-.48-3.21-.7-4.85-.51-4-.89-8.13-1-12.2-.08-2.08-.1-4.15 0-6.18a23.35 23.35 0 0 1 .76-5.24 36.82 36.82 0 0 1 3.13-7.85c.56-1.08 1.18-2.16 1.85-3.22 10.19-16.43 30.41-30.84 30.93-31.2-.35.33-11.45 11.09-18.65 34.78-.41 1.36-.76 2.73-1 4.1a48.84 48.84 0 0 0-1.08 8.98Z" class="color34234d svgShape"></path><path fill="#3f8984" d="M844.91 608.22a4.79 4.79 0 0 1 1.73.43c-1.09-.29-1.73-.43-1.73-.43Z" class="color3f8984 svgShape"></path><path fill="#34234d" d="M851.31 665.74a82.5 82.5 0 0 0 4.41 13.41c0 11.83 21.64 5.91 16.23-5.91a25.47 25.47 0 0 1-1.93-7.13c-.79-5.61-.49-12.27.09-18.79.26-3 .58-6 .87-8.78.52-4.8 1-9.19 1-12.59a9.36 9.36 0 0 0-2.71-6.26c-5.52-6.17-17.94-9.84-22.56-11 2.7 1.17 7.2 5.44 4.1 21-.14.7-.29 1.43-.46 2.18a58.39 58.39 0 0 0-1.19 7.3 75.18 75.18 0 0 0 .64 18.91ZM924.79 671.4s10.82-23.64 5.41-47.29 5.41-23.64 5.41-23.64-27 5.91-27 17.73 5.41 35.47 0 47.29 16.18 17.73 16.18 5.91Z" class="color34234d svgShape"></path><path fill="#34234d" d="M910.84 685.36a86.32 86.32 0 0 0-10.12-84.12 97.83 97.83 0 0 0-6.11 30.92c-.57 20 5.57 35.63 0 47.28-.46 1-1.72 3.42-.7 5.22 1.86 3.34 10.09 2.2 16.93.7Z" class="color34234d svgShape"></path><path fill="#34234d" d="M905.4 679.84s-5.8 4.58-11.52 4.77c-3.62.13-7.22-1.52-9.27-7.21A55 55 0 0 1 881 672a57.69 57.69 0 0 1-7.48-19.33 33 33 0 0 1 .25-13 28.36 28.36 0 0 1 1.88-5.42c1.87-4 3.41-7.46 4.67-10.57 5.05-12.46 5.84-19.11 7.13-30.2 0 0 7.57 9.56 10.41 17a12.21 12.21 0 0 1 1 5.38 12 12 0 0 1-1.24 3.82c-.7 1.45-1.58 2.92-2.41 4.54a22.56 22.56 0 0 0-2.09 5.62c-.67 3.27-.48 7.16 1.71 12.08.23.53.49 1.09.78 1.65.64 1.26 1.25 2.57 1.81 3.91a84 84 0 0 1 3 8.26 141.25 141.25 0 0 1 4.98 24.1ZM1033.29 650.08s-11.73 0-29.79 5.38c-1.65.48-3.35 1-5.1 1.6a51.49 51.49 0 0 0-6 2.47 68 68 0 0 0-15.16 10.26 90.76 90.76 0 0 0-10.49 10.93c-2.08 2.57-3.2 4.25-3.2 4.25-.4 0-7.74-.08-11.61-2.84a5 5 0 0 1-2.33-4.14 8.18 8.18 0 0 1 1-3.4 22.33 22.33 0 0 1 1.36-2.37A76.28 76.28 0 0 1 962.31 660c.53-.53 1.07-1.06 1.63-1.59 1.54-1.47 3.16-2.92 4.79-4.32a92.8 92.8 0 0 1 12.79-9.4c1-.6 2-1.13 2.93-1.6 13.95-6.96 48.84 6.99 48.84 6.99Z" class="color34234d svgShape"></path><path fill="#ffc9c0" d="M816.73 645c-.07.27-.17.57-.28.87a6.88 6.88 0 01-.32.74 6.28 6.28 0 01-6.11 3.49 32.82 32.82 0 00-10.78 2.18c-3-1.24-6.11-2.32-9.23-3.28a28.76 28.76 0 014.27-10.72 93 93 0 0115.72 4.83c1.92.76 3.74 1.54 5.47 2.31a4.84 4.84 0 011.26-.42zM842.63 632.49c.93 2.83 1.75 5.77 2.45 8.76a31.18 31.18 0 01-7.15 1.86h-9a50.53 50.53 0 00-7.22-17.59c-2-3-4-5.69-5.94-8.14 3-1.3 6.2.3 15.19 4.8 8.13 4.06 9.16 8.13 11.36 9.43.1.29.21.59.31.88zM869.24 619.69A9.36 9.36 0 01872 626c0 3.4-.45 7.79-1 12.59a42.4 42.4 0 00-12.12-2.41c-4.92-.26-6.85 1.28-9.73 3a58.39 58.39 0 011.19-7.3c.17-.75.32-1.48.46-2.18.35-.17.72-.34 1.1-.54 8.18-4.1 13.96-8.16 17.34-9.47zM933 626.45a40.73 40.73 0 0011.24 7.68 48.84 48.84 0 00-1 9h-.73s0 7-7 0a32.47 32.47 0 00-3.92-3.32 30.69 30.69 0 00-3.63-2.27c-5.48-2.93-10.79-3.52-11.83.16a.61.61 0 000 .11c-1 3.09-3.79 1.92-5.91.46a20.46 20.46 0 01-2.59-2.13s-6.29-12.58-12.89-7.88a7.8 7.8 0 00-1.06.9c-.23.23-.44.45-.65.69-4.93 5.56-6.15 14.57-9.63 15.14-1.35.22-2.42-.86-3.68-1.87a29 29 0 00-6.06-3.48 28.36 28.36 0 011.88-5.42c1.87-4 3.41-7.46 4.67-10.57a19.24 19.24 0 016.49-1.46c4.87 0 6.34-3.41 9.16-3.08a4.41 4.41 0 011.67.57 14.06 14.06 0 013.12 2.51c4.73 4.72 6.26 9.46 8.93 9.84 1.2.17 2.64-.55 4.7-2.54l.33-.33c7-7 3.12-17.77 15.41-5.51l.08.08c1.07.98 2.02 1.89 2.9 2.72zM970.54 636.37a49 49 0 00-6.42 14.3l-.6-.59c-3.76-3.75-9.52-5.48-14-6.29 0-.15.09-.3.14-.44a25.94 25.94 0 013.91-7.26h3c7 0 0-14 14 0l.13.12zM1003.5 655.46c-1.65.48-3.35 1-5.1 1.6a51.49 51.49 0 00-6 2.47c-3.19-1.47-6.06-2.47-7.92-2.47-5.24 0-10.48 0-15.72-2.95a92.8 92.8 0 0112.79-9.4c8.73 5.21 16.7 6.87 21.95 10.75z" opacity=".2" class="colorffc9c0 svgShape"></path><path fill="#ffc9c0" d="M851.31 665.74a12.2 12.2 0 017.55-1.7 43 43 0 0111.14 2.07c-.79-5.61-.49-12.27.09-18.79-3.2.79-9.28 5.27-18.23 9.74-.76.38-1.46.72-2.11 1s-1.15.53-1.66.74c-8.94 3.74-4.68-2.5-17.16-8.74l-1-.49c.15 1.31.25 2.59.32 3.83l-13.84-7.57c.11-.3.21-.6.28-.87a4.84 4.84 0 00-1.24.44c-1.57.76-3.13 2.32-5.47 4.66L805.1 655c7.24 3.85 12.85 8.83 14.22 15.23.06.26.12.52.17.77h18.44a32.18 32.18 0 006.67-1.65 26.47 26.47 0 004.34-2.17zM977.21 669.79a90.76 90.76 0 00-10.49 10.93 25 25 0 01-3.2-2.73c-.41-.4-.83-.78-1.28-1.14a26.31 26.31 0 00-10.29-4.63c-.92-.22-1.81-.4-2.67-.55a48.14 48.14 0 00-5.31-.61h-1.38s0 7-7 0a32.75 32.75 0 00-6.54-5c-.62-.36-1.25-.7-1.87-1-4.86-2.39-9.42-2.84-10.76 0a2.78 2.78 0 00-.21.57c-1.17 4.09-5.43 1.12-7.45-.58-.66-.55-1.08-1-1.08-1s-3.13-6.27-7.3-8.3a5.19 5.19 0 00-4.28-.3 6.83 6.83 0 00-2.37 1.62c-5.48 5.47-6.66 15.23-10.28 15.83a3.27 3.27 0 01-2.45-.9 57.69 57.69 0 01-7.48-19.33c1.89 2.09 7.59-2.56 13.29-2.56 4.44 0 6.05-2.83 8.44-3.08a3.78 3.78 0 012.19.48 13.54 13.54 0 013.32 2.6c5.07 5.07 6.46 10.14 9.51 9.86 1.15-.1 2.54-1 4.45-2.88a15.78 15.78 0 002.71-3.7c3.07-5.61 2.61-10.83 10-4.39.83.74 1.78 1.63 2.84 2.69l.3.3c5.93 5.88 10.62 8.91 14.66 10.46.33.13.64.24 1 .34a30.24 30.24 0 0010.31 1.21c4.86 0 2.94-6.78 6.06-6.17a4.36 4.36 0 011.34.56 36.44 36.44 0 016.55 5.61 56.65 56.65 0 006.72 5.79z" opacity=".46" class="colorffc9c0 svgShape"></path><path fill="#ff5169" d="m1468 620.63-146.76 34.93-45.77-192.32 146.77-34.92ZM1331.79 639l119.33-28.39-39.45-165.8-119.34 28.4Z" opacity=".45" class="colorff5169 svgShape"></path><path fill="#ff5169" d="M1330.31 485.3h83.85v116.74h-83.85z" opacity=".6" transform="rotate(-13.39 1371.82 543.58)" class="colorff5169 svgShape"></path><path fill="#ff5169" d="m1282.6 671.19-146.76 34.93-45.77-192.31 146.77-34.93Zm-136.2 18.41 119.33-28.4-39.45-165.79-119.34 28.39Z" class="colorff5169 svgShape"></path><path fill="#00b5f4" d="M1144.92 535.86h83.85V652.6h-83.85z" transform="rotate(-13.39 1186.51 594.114)" class="color00b5f4 svgShape"></path><path fill="#ffc9c0" d="M967.6 1285.33 938.22 1003c-4.16-40 21.6-77.25 61.58-89.07L1442.7 783c53.37-15.78 108.32 19.67 113.32 73.11q13 139.26 26.06 278.51c3.69 39.39-21.59 75.95-60.8 88l-439.57 134.71c-53.22 16.32-108.55-18.6-114.11-72Z" class="colorffc9c0 svgShape"></path><path fill="#ffffff" d="m1275.92 902.18 3.36 35.53-131.12 42.69-58.97 19.2-92.42 30.09-3.79-39.74 92.55-28.71 59.05-18.32 131.34-40.74zM1491.84 868.5l-153.57 50.01-3.3-34.64 155.94-48.38.93 33.01zM1092.3 1032.29l3.67 38.43-90.92 29.6-3.98-39.72 91.23-28.31zM1502.42 938.37l-157.39 51.24-58.97 19.2-131.13 42.71-3.57-37.54 131.31-40.74 59.05-18.32 159.77-49.56.93 33.01zM1292.9 1080.65l-131.13 42.71-58.96 19.18-91.41 29.77-3.98-39.72 91.72-28.46 59.05-18.31 131.32-40.74 3.39 35.57zM1508.78 1010.36l-156.9 51.09-3.3-34.68 159.27-49.42.93 33.01zM1296.58 1119.12l3.37 35.47-131.15 42.68-59 19.21-7.09 2.3-85.3 27.78-1.32.45-2.5-25v-12.61l.26-.08-.23-2.44 92.54-28.71v.15l59.1-17.8-.07-.66h.07l131.25-40.72ZM1508.78 1086.58l-149.87 48.8-3.28-34.59 152.22-47.22.93 33.01zM1473.97 1138.75l-1.42 43.55-105.91 34.2-58.99 19.05-131.16 42.37-4.58-48 131.43-39.68 59.11-17.83 111.52-33.66zM1114.75 1252.72v45.17l-89.54 30.27-.94.32-4.53-45.18 1.15-.36 92.44-29.77 1.42-.45zM1336 1055.51c0 7.4-5.33 13.39-11.9 13.39s-11.9-6-11.9-13.39 5.33-13.38 11.9-13.38 11.9 5.99 11.9 13.38Z" class="colorfff svgShape"></path><path fill="#ffffff" d="M1318.13 1060s17.85 8.92 17.85 17.84c0 0 6-26.77-6-26.77s-11.85 8.93-11.85 8.93ZM1316.73 919.72c0 7.39-5.33 13.38-11.9 13.38s-11.89-6-11.89-13.38 5.32-13.39 11.89-13.39 11.9 6 11.9 13.39Z" class="colorfff svgShape"></path><path fill="#ffffff" d="M1298.89 924.18s17.84 8.92 17.84 17.84c0 0 6-26.76-6-26.76s-11.84 8.92-11.84 8.92ZM1517.75 1148.77c0 7.4-5.33 13.39-11.9 13.39s-11.9-6-11.9-13.39 5.33-13.38 11.9-13.38 11.9 5.99 11.9 13.38Z" class="colorfff svgShape"></path><path fill="#ffffff" d="M1499.9 1153.24s17.85 8.92 17.85 17.84c0 0 6-26.77-6-26.77s-11.85 8.93-11.85 8.93ZM1335.66 1131.84c0 7.39-5.33 13.38-11.9 13.38s-11.89-6-11.89-13.38 5.32-13.39 11.89-13.39 11.9 5.99 11.9 13.39Z" class="colorfff svgShape"></path><path fill="#ffffff" d="M1317.81 1136.3s17.85 8.92 17.85 17.84c0 0 5.95-26.77-6-26.77s-11.85 8.93-11.85 8.93ZM1157.81 1265.23c0 7.39-5.33 13.38-11.9 13.38s-11.9-6-11.9-13.38 5.33-13.39 11.9-13.39 11.9 5.99 11.9 13.39Z" class="colorfff svgShape"></path><path fill="#ffffff" d="M1140 1269.69s17.85 8.92 17.85 17.84c0 0 5.94-26.77-6-26.77s-11.85 8.93-11.85 8.93ZM1140.53 1052.6c0 7.39-5.33 13.38-11.9 13.38s-11.89-6-11.89-13.38 5.32-13.38 11.89-13.38 11.9 5.99 11.9 13.38Z" class="colorfff svgShape"></path><path fill="#ffffff" d="M1122.68 1057.06s17.85 8.92 17.85 17.85c0 0 6-26.77-6-26.77s-11.85 8.92-11.85 8.92ZM1902.61 1196.85c.3 6.31-38.91 16.08-77.49 16.55-41.9.52-84.78-9.91-84.51-17.05.17-4.75 19.43-7.7 28.08-9 20-3.07 26.71.15 56.43.5 23.92.29 28.24-1.69 45.89.5 9.87 1.2 31.38 3.87 31.6 8.5Z" class="colorfff svgShape"></path><ellipse cx="1823.36" cy="1196.46" fill="#00b5f4" rx="61.19" ry="8.42" class="color00b5f4 svgShape"></ellipse><path fill="#ffffff" d="M1880 1142.93a57.93 57.93 0 0 1-115.86 0c0-1.9.09-3.78.27-5.63 0-.48.1-1 .16-1.43 3.5-3.23 27.91-5.73 57.5-5.73s54 2.5 57.5 5.73c.06.47.12 1 .16 1.43.27 1.85.27 3.7.27 5.63Z" class="colorfff svgShape"></path><path fill="#00b5f4" d="M1880 1136.66a1 1 0 0 1-.27.64c-2.84 3.3-27.58 5.88-57.66 5.88s-54.82-2.58-57.66-5.88a1 1 0 0 1-.27-.64 1.08 1.08 0 0 1 .43-.79c3.5-3.23 27.91-5.73 57.5-5.73s54 2.5 57.5 5.73a1.08 1.08 0 0 1 .43.79Z" class="color00b5f4 svgShape"></path><path fill="#ffffff" d="M1883.94 1179.4a20.74 20.74 0 0 1-2.21-.12c-18.92-2-23.78-5-24.56-5.6l3.61-4.82s4.43 2.63 21.58 4.43c5.47.59 9.81-1.74 12.93-6.89 4.61-7.63 4.76-19.12 1.81-23.55a3.21 3.21 0 0 0-2.38-1.48c-4.73-.73-13.42 4.62-17.8 8.16l-3.79-4.67c1.37-1.11 13.63-10.76 22.49-9.45a9.29 9.29 0 0 1 6.49 4.1c4.6 6.9 3.82 20.93-1.67 30-3.89 6.49-9.69 9.89-16.5 9.89Z" class="colorfff svgShape"></path><path fill="#4aa095" d="M935.23 1422.69s-90.49-62.37-73.37-84.38 73.37 84.38 73.37 84.38Z" class="color4aa095 svgShape"></path><path fill="#409890" d="M921.32 1416.08c-.37 6.29-4.79 15.89-17.44 5.15a158.6 158.6 0 0 0-25.35-15q-3.27-1.54-6.2-2.77c-7.62-3.21-13.75-5.13-18.85-7.28-5.73-2.41-10.2-5.13-14.05-10.23-4.62-6.12-9.52-17.25-5.75-21.8s16.94-2.74 31.87 2.93a151.37 151.37 0 0 1 20.51 9.66c19.24 10.87 36.05 25.84 35.26 39.34Z" class="color409890 svgShape"></path><path fill="#439b90" d="M959.8 1308.85c-.66 5.62-1.75 12-3.11 18.78-8.09 40.7-25.82 97.59-21.46 111.25l-6.11-6.41s-5.84-63 1.43-106.77a126.76 126.76 0 0 1 4.35-18.58c3.45-10.59 8.29-18.41 15-21.4 10.1-4.47 11.95 5.9 9.9 23.13Z" class="color439b90 svgShape"></path><path fill="#409890" d="M1000 1369.55a165.36 165.36 0 0 0-19.56 17.38 155.42 155.42 0 0 0-20.76 27.2c-39.13 64.81-15.9 0-15.9 0a190.85 190.85 0 0 1 9.32-38.38c3.93-10.71 9.34-21.53 16.69-29.32 9-9.52 20.82-14.53 36.36-9.35 34.49 11.5 19.37 13.08-6.15 32.47Z" class="color409890 svgShape"></path><path fill="#3a8479" d="m951.1 1413.69-1.17-.35c.45-1.51 11.25-37 26-45.6l.62 1.06c-14.34 8.34-25.34 44.52-25.45 44.89ZM931.52 1419.26l-1.21-.12c.32-3.11 8-76.24 12.9-90.81l1.16.39c-4.81 14.44-12.77 89.78-12.85 90.54ZM914 1417c-.24-.23-24.62-23.25-46.27-31.66l.45-1.14c21.87 8.5 46.42 31.68 46.66 31.92Z" class="color3a8479 svgShape"></path><path fill="#77bfb2" d="M1000 1369.55a165.36 165.36 0 0 0-19.56 17.38c-2.8-7.83-8.87-8.78-20.15-7.66a7.13 7.13 0 0 1-7.19-3.52c3.93-10.71 9.34-21.53 16.69-29.32.93 8.74 2.73 12 21.07 17 4.66 1.19 7.5 3.44 9.14 6.12ZM886.1 1376.78a12.14 12.14 0 0 1-5.48 4.28c-5.81 2-7.78 3.91-8.1 19.92a21 21 0 0 1-.19 2.49c-7.62-3.21-13.75-5.13-18.85-7.28 6.18-3.37 6-8.65 3.17-18.68-1.9-6.7 4.45-9.38 8.9-10.42Z" class="color77bfb2 svgShape"></path><path fill="#ffffff" d="M945.19 1515.59h-16.91a24.27 24.27 0 0 1-7-1c-6.65-2-18.33-6.94-26.14-18.74a43.6 43.6 0 0 1-5.34-11.39 23.84 23.84 0 0 1-1-7v-21.76a46.6 46.6 0 0 1 46.47-46.47 46.6 46.6 0 0 1 46.47 46.47v21.59a24.23 24.23 0 0 1-1.11 7.38 47.65 47.65 0 0 1-5.23 11.16 49.17 49.17 0 0 1-18.62 16.92 24.58 24.58 0 0 1-11.59 2.84Z" class="colorfff svgShape"></path><path fill="#00b5f4" d="M910.63 1436.34h6.79v16.12h-6.79zM924.2 1453.3h6.79v16.12h-6.79zM936.93 1470.27h6.79v16.12h-6.79zM949.65 1452.45h6.79v16.12h-6.79zM936.93 1433.79h6.79v16.12h-6.79zM907.24 1468.57h6.79v16.12h-6.79zM956.44 1431.25h6.79v16.12h-6.79z" class="color00b5f4 svgShape"></path><path fill="#bddff4" d="m1165.24 1159.86-52.84 16.39 52.72-17.7.12 1.31z" class="colorbddff4 svgShape"></path></g><g data-name="man 2"><path fill="#ffa599" d="M1889.51 1295.17c-46.59-24.12-78.6-41.67-94.78-52.8-5-3.48-14.18-10.19-25.81-9.41-10.76.71-21.73 3.37-21.57 5.73.09 1.37 4 2.94 19.54 4.08-29.79-10.65-39.26-8.1-39.26-8.1-5.19 1.4-12.12 4.8-11.84 7.79.66 6.88 39.14 8.91 39.26 8.1l-19.63-4-29.44-6.07q-12.39 5.36-11.84 7.79c.3 1.34 3.57 2 9.81 2 39.94 8.91 49 10.51 49.08 10.12s-13-5-29.45-6.07c-24.49-1.59-29.47 1.26-31.47 3.74-2.26 2.83-3.8 7.51-2 9.82 3.23 4.18 13.38-4.59 29-2.67 2 .24 1.7.37 24.64 9.52 8.94 3.56 15 6 14.72 7.47-.47 2.33-15.15-1.9-21.3 5.61-2.08 2.55-3.4 6.71-2 9.82 3 6.72 17.27 5.69 29.44 6.07a164.47 164.47 0 0 1 51.6 10.36s52.02 26.93 73.3-18.9Z" class="colorffa599 svgShape"></path><path fill="#94ebff" d="M2026.9 1412.77 1858.44 1270a80.75 80.75 0 0 0-19.68 18.26 87.85 87.85 0 0 0-16.81 39.24c34.51 167.1 139.73 276.78 228.24 275.79 20.6-.23 68.78-6.77 116.45-36 20.13-12.34 49.06-30.07 67.76-63.52 30.66-54.86 29-143.48-16.94-173.62-45.23-29.61-137.25-5.22-190.56 82.62Z" class="color94ebff svgShape"></path><path fill="#ffa599" d="M2028.7 1346c-44.51-9.75-70.52-44.27-79.69-58a231.45 231.45 0 0 0 25.28-12.65c14-8.14 21.09-12.2 24.88-17.94a23.56 23.56 0 0 0 3.64-10.12c1-7.79-1-16.53-4-24.41a126.23 126.23 0 0 0-11.93-23.37l75.84-12.64c32.51 55.42 51.51 72.42 63.2 75.84a78.42 78.42 0 0 1 25.28 12.64c6.67 5 10.51 7.94 11.32 11.35 4.19 17.6-65.62 74.24-133.82 59.3Z" class="colorffa599 svgShape"></path><path fill="#ff6666" d="M2062.77 1212.22a67.07 67.07 0 0 1-22.12 23.71c-11.38 7.23-25.48 11-37.84 11.43 1-7.79-1-16.53-4-24.41 12.2-1.67 26.8-4.81 38.63-10.73Z" class="colorf66 svgShape"></path><path fill="#ffa599" d="M2116.32 1163.26c-21.28 47.51-71.53 59.93-78.83 61.6-7.86 1.81-54.76 12.47-75.84-12.64-10.18-12.12-10.1-27.53-10-51.86.09-16.19.7-40.68 10.59-63.6 23.66-54.83 77.34-84.39 119.88-66 42.97 18.48 54.88 86.29 34.2 132.5Z" class="colorffa599 svgShape"></path><path fill="#1e152d" d="M1974.29 1035.26c15.41 22 39.3 15.14 50.56 37.92 7.18 14.54-1.44 19.56 7.12 40 8.21 19.6 20.06 24.37 18.16 35.84-2 12.29-16.73 13.41-18.16 23.19-2.11 14.5 27 37.25 56.08 40 42.43 4 84.79-34.38 101.12-75.84 1.13-2.88 23.48-62.52-12.64-113.76-26-37-75.52-59.45-113.76-50.56-22.66 5.27-40.3 20.85-63.2 12.64-14.13-5.07-18.83-15.09-25.28-12.64-10.99 4.18-16.05 40.34 0 63.21Z" class="color1e152d svgShape"></path><path fill="#ffffff" d="M1519.24 1223.46h75.84v140.45h-75.84z" transform="rotate(-5.18 1555.862 1292.62)" class="colorfff svgShape"></path><path fill="#ff5169" d="m1524.75 1368.21-12.87-142 77.68-7 12.87 142Zm-10.52-140.07 12.47 137.73 73.39-6.64-12.48-137.74Z" class="colorff5169 svgShape"></path><path fill="#ffc9c0" d="m1591.97 1348.49-61.5 5.57-1.43-15.84-1.62-17.8-.46-5.18-2.19-24.06-4.89-54 52.29-4.75h.01l9.2-.82 1.32 14.55.47 5.18 1.87 20.64 6.93 76.51z" class="colorffc9c0 svgShape"></path><path fill="#f8fdff" d="m1585.04 1271.98-54.46 67.49-1.54-1.25-1.62-17.8 55.75-69.08 1.87 20.64z" opacity=".63" class="colorf8fdff svgShape"></path><path fill="#ffa599" d="M1528.14 1370.69s13.45-47.53 26.48-51.74a4.56 4.56 0 0 0 2.85-2.26c1.26-3.07-2.64-8.87-7-10.78-8.94-3.88-17.78 11.63-26.08 8.42-5.12-2-6.73-9.6-7.66-14-3-14.14 4.22-23.12 0-27.4-1.63-1.66-5.16-2.81-13.7 0-12.61-.43-13.7 0-13.7 0-7.71 3-7.85 13.39-13.7 13.7-2.74.14-3.4-2.09-5.67-1.53-4 1-3.42 8.4-8 15.23-4 5.89-9.34 7.66-11.15 9-6.42 4.62-3.72 29 37.89 117.35Z" class="colorffa599 svgShape"></path><path fill="#94ebff" d="M2002.46 1936.33c-76.67 31.05-163.27 14.27-217.78-41.53-54.34-55.63-72.72-147.88-54.49-173a16.61 16.61 0 0 1 3.93-4c7.88-5.57 22.68-4.18 25.28-12.65 1.28-4.17-1.4-7.5-4.65-11.39-3.1-3.7-6.74-7.93-8-13.89-4.28-20.46 25.49-33.39 37.92-63.2 5.42-13 9.17-33.07 0-63.2-36.14 29.34-70.32 43.91-92.13 53.06-48.27 20.3-108 33.42-160.67 10.14-9.48-4.18-32.07-14.46-50.57-37.92-12.79-16.21-20.11-34.24-23.84-52.27-10.83-52.16 8.23-104.27 11.2-112 16.55-17.91 60.61-62.42 88.49-50.56 8 3.38 11.16 9.9 37.92 50.56a3807.32 3807.32 0 0 0 25.28 37.92 786.55 786.55 0 0 1 227.52-139 777.05 777.05 0 0 1 126.41-37.93c52.42 31.25 108.28 37.15 142.94 11.58a79 79 0 0 0 21.38-24.22c32.82 14.36 54.31 33 68.82 52.08 88.34 116.48 2.71 365.09-204.96 621.42Z" class="color94ebff svgShape"></path><path fill="#ffffff" d="M2196.19 1340.15c17.63 25.39 43.73 78.32 18.26 200.72-11.28 54.21-29.32 105.93-50.88 154 83.68-161.49 103.69-301 43.85-380-14.5-19.13-36-37.74-68.81-52.09a82.2 82.2 0 0 1-13.85 17.84c22.44 10.94 50.34 29.16 71.43 59.53ZM1545.92 1389.19c8 3.38 11.16 9.9 37.92 50.56 10.74 16.31 19.6 29.51 25.28 37.92a1238.11 1238.11 0 0 1 374.25-197.11q-4.56-2.44-9.08-5.14a775.77 775.77 0 0 0-126.41 37.93 786.91 786.91 0 0 0-227.52 139c-5.68-8.41-14.55-21.61-25.28-37.92-26.76-40.66-30-47.18-37.92-50.56-27.88-11.85-72 32.66-88.49 50.56-1 2.53-3.64 9.77-6.43 20.17 19.13-19.93 58.18-56.25 83.68-45.41Z" opacity=".57" class="colorfff svgShape"></path><path fill="#ffa599" d="M1974.29 1085.82a158.14 158.14 0 0 1-25.29 25.28c-7.94 6.32-13 9.09-12.65 12.64.4 4 7.72 8.89 37.93 12.64Z" class="colorffa599 svgShape"></path><path fill="#1e152d" d="M1972.91 1096.12a6.59 6.59 0 1 0 9.17-1.67 6.59 6.59 0 0 0-9.17 1.67ZM1996.58 1085.91a4.92 4.92 0 0 1-3.73-.13c-5.79-2.59-23.16-10.55-22.09-12.1a11.53 11.53 0 0 0 1.18-2.69 5 5 0 0 1 5.29-3.33c.63.07 1.35.12 2.18.13a27.61 27.61 0 0 1 8.24 1.36 5 5 0 0 1 1.19.61l3.82 2.64a43 43 0 0 1 5.82 5.51 4.94 4.94 0 0 1-1.9 8Z" class="color1e152d svgShape"></path><path fill="#ff6666" d="M1981.31 1152.39c-7.47 9.47-15.21 14.26-23 14.26-.46 0-.92 0-1.37-.06a19.56 19.56 0 0 1-4.58-.88c-.25-1.77-.46-3.54-.63-5.33a15.53 15.53 0 0 0 5.55 1.5c6.6.48 13.46-3.69 20.35-12.4ZM2025.52 1156c1.18-.3 11.49-3.09 12-8.81.33-3.67-3.28-7.19-11-10.77l-1.14 2.48c8.51 3.93 9.59 6.72 9.47 8-.26 2.88-6.25 5.46-10 6.41Z" class="colorf66 svgShape"></path><path fill="#ffffff" d="M1784.68 1553.51c-14 10.68-147.4 109.76-252.8 63.2-9.48-4.18-32.07-14.46-50.57-37.92-12.79-16.21-20.11-34.24-23.84-52.27 9 13.51 21.84 29.7 36.48 39.63 25.74 17.45 55.09 15.11 75.85 12.64 113.79-13.51 209.31-93.94 227.52-75.84 4.68 4.61 5.44 16.77-12.64 50.56Z" opacity=".57" class="colorfff svgShape"></path><path fill="#ffffff" d="m1785.84 1556.07-2.32-5.12c30.15-13.67 86.5-46.49 125.14-112.62a277.25 277.25 0 0 0 37.54-150.16l5.61-.21a282.87 282.87 0 0 1-38.3 153.21c-39.42 67.47-96.91 100.95-127.67 114.9Z" class="colorfff svgShape"></path><path fill="#ffffff" d="M1810.66 1717.13s-58.69 8.39-80.47 4.67a16.61 16.61 0 0 1 3.93-4c7.88-5.57 22.68-4.18 25.28-12.65 1.28-4.17-1.4-7.5-4.65-11.39 3.23-1.25 5.35-2 5.35-2s12.64 11.33 50.56 25.37Z" opacity=".57" class="colorfff svgShape"></path><path fill="#f8fdff" d="m1582.7 1246.16-55.74 69.08-2.19-24.06 47.4-58.75h.01l9.2-.82 1.32 14.55z" opacity=".63" class="colorf8fdff svgShape"></path><path fill="#ffffff" d="M2118.64 1299.64c8.6-5.7 20-15.42 30-32.17-3.21-1.6-6.52-3.17-10-4.69a79 79 0 0 1-21.38 24.22c-34.66 25.57-90.52 19.67-142.94-11.58q-9.42 2-19.21 4.29c57.43 39.36 121.63 47.67 163.53 19.93Z" class="colorfff svgShape"></path></g><g><path fill="#008aaa" d="m1739.66 2216.59-50.29 327.91c-5 32.66-27.23 23.11-25.42-10.92l21.05-394.09c1.28-24.12 14.94-34.66 22.56-17.42l29.24 66.18c3.3 7.45 4.4 18.33 2.86 28.34ZM2039.23 2159.87l11.54 331.55c1.14 33-22.47 27.77-27-6l-52.56-391.13c-3.22-24 8.24-36.84 18.93-21.31l41 59.58c4.64 6.7 7.74 17.2 8.09 27.31ZM1449.93 2031.11l-49.59 281.31c-4.94 28-27.18 19.78-25.44-9.42l20.21-338.17c1.24-20.7 14.87-29.72 22.53-14.9l29.38 56.85c3.3 6.4 4.42 15.75 2.91 24.33Z" class="color008aaa svgShape"></path><path fill="#ff5169" d="M2030.19 2009.73c41.6-7.59 75.54 33.48 60 72.79-.12.32-.25.65-.39 1-21.11 51.76-78.49 70.8-146.34 92.23-42.21 13.34-107.23 28.93-190.71 29.58a54.72 54.72 0 0 1-28.88-8l-307.08-186.86a54.58 54.58 0 0 1-26-42.49q-1.56-20.65-3.13-41.3c-3.39-44.76 45.71-74.25 83.63-50.21l270.17 171.22a54.5 54.5 0 0 0 39 7.59Z" class="colorff5169 svgShape"></path><path fill="#ff5169" d="m2299.25 1513.51-150.35 369.28-54.71 134.4c-6.38 15.66-20.52 27.4-37.9 31.47l-254 59.42a58 58 0 0 1-28.22-.32c-28.33-7.53-47.47-36.26-37-65.59l9.55-23.22 15.71-38.25 183.51-446.42c6.45-15.67 20.68-27.4 38.12-31.37l251.16-57.4c42.88-9.81 79.88 29.42 64.13 68Z" class="colorff5169 svgShape"></path><path fill="#ffa599" d="m1787.59 2088.52 208.77-507.89c6.44-15.67 20.68-27.4 38.12-31.38l251.17-57.4a59.27 59.27 0 0 1 17-1.38c-2.93-29.37-33.38-52.79-67.58-45l-251.17 57.4c-17.44 4-31.68 15.71-38.12 31.38L1737 2042.17c-11.73 32.94 13.89 65.12 47.9 67.34a48.25 48.25 0 0 1 2.69-20.99Z" class="colorffa599 svgShape"></path><path fill="#fc2246" d="M1942.33 2113.93c-44.49 13.33-113 28.93-201 29.57a60 60 0 0 1-30.43-8l-321.56-185.6q.69 9 1.37 18.09a54.58 54.58 0 0 0 26 42.49l307.08 186.86a54.72 54.72 0 0 0 28.88 8c83.48-.65 148.5-16.24 190.71-29.58 67.85-21.43 125.23-40.47 146.34-92.23.14-.32.27-.65.39-1a52.88 52.88 0 0 0-2.41-44.77c-26.98 39.93-81.8 57.12-145.37 76.17Z" class="colorfc2246 svgShape"></path></g></svg>