<?xml version="1.0" encoding="iso-8859-1"?>
<!-- Generator: Adobe Illustrator 27.0.0, SVG Export Plug-In . SVG Version: 6.00 Build 0)  -->
<svg version="1.1" id="Layer_1" xmlns="http://www.w3.org/2000/svg" xmlns:xlink="http://www.w3.org/1999/xlink" x="0px" y="0px"
	 viewBox="0 0 500 500" style="enable-background:new 0 0 500 500;" xml:space="preserve">
<g id="Mphasis_Logo_Horizontal_Colour">
	<g id="Group" transform="translate(68.000000, 92.000000)">
		<g transform="translate(43.000000, 5.000000)">
			<g transform="translate(0.000000, 34.453125)">
				<polygon id="Path" points="32.636,155.567 32.636,153.282 49.401,153.282 49.401,155.567 42.301,155.567 42.301,173.836 
					39.753,173.836 39.753,155.567 				"/>
				<path id="Path_1_" d="M60.501,153.304v8.427c1.253-1.919,3.214-2.559,5.079-2.578c4.138,0,6.156,2.691,6.156,6.7v7.982h-2.411
					v-7.964c0-2.846-1.491-4.475-4.158-4.475c-2.685,0-4.647,2.096-4.647,4.727v7.693h-2.431v-20.573h2.412V153.304z"/>
				<path id="Shape" d="M95.072,171.532c-1.491,1.724-4.04,2.575-6.334,2.575c-4.549,0-7.726-2.962-7.726-7.573
					c0-4.377,3.177-7.516,7.609-7.516c4.489,0,7.901,2.729,7.352,8.525H83.482c0.274,2.669,2.49,4.336,5.313,4.336
					c1.667,0,3.689-0.64,4.667-1.818l1.648,1.472H95.072z M93.66,165.526c-0.118-2.827-2.078-4.339-4.962-4.339
					c-2.55,0-4.785,1.532-5.197,4.321h10.179v0.019H93.66z"/>
				<polygon id="Path_2_" points="121.211,153.282 133.957,169.03 133.957,153.282 136.507,153.282 136.507,173.858 
					134.722,173.858 121.936,158.164 121.936,173.858 119.387,173.858 119.387,153.282 				"/>
				<path id="Shape_1_" d="M160.253,171.532c-1.491,1.724-4.039,2.575-6.333,2.575c-4.551,0-7.727-2.962-7.727-7.573
					c0-4.377,3.177-7.516,7.609-7.516c4.492,0,7.904,2.729,7.355,8.525h-12.492c0.274,2.669,2.49,4.336,5.315,4.336
					c1.667,0,3.686-0.64,4.664-1.818l1.65,1.472H160.253z M158.822,165.526c-0.118-2.827-2.078-4.339-4.96-4.339
					c-2.553,0-4.784,1.532-5.197,4.321h10.178v0.019H158.822z"/>
				<polygon id="Path_3_" points="173.727,166.418 168.782,159.425 168.782,159.327 171.489,159.327 175.293,164.829 
					179.039,159.327 181.826,159.327 181.826,159.425 176.825,166.418 182.196,173.798 182.196,173.858 179.393,173.858 
					175.255,167.987 171.099,173.858 168.392,173.858 168.392,173.798 				"/>
				<path id="Path_4_" d="M194.983,159.365h4.549v2.052h-4.587v7.674c0,1.705,0.567,2.789,2.313,2.789
					c0.646,0,1.39-0.214,2.058-0.523l0.704,1.998c-0.979,0.444-1.88,0.678-2.862,0.696c-3.156,0.057-4.647-1.762-4.647-4.96v-7.674
					h-2.943v-2.052h2.943v-3.99l2.433-0.271v4.261H194.983z"/>
				<path id="Shape_2_" d="M231.773,153.282l9.33,20.576h-2.781l-2.063-4.535h-11.901l-2.019,4.535h-2.825l9.336-20.576H231.773z
					 M230.319,155.86l-4.941,11.099h9.881L230.319,155.86z"/>
				<path id="Shape_3_" d="M249.793,159.384h2.313l0.117,2.789c1.157-1.935,3.334-3.057,5.647-3.057
					c4.217,0.076,7.316,3.019,7.316,7.494c0,4.592-3.06,7.557-7.472,7.557c-2.077,0-4.392-0.892-5.548-2.947v9.454h-2.373V159.384z
					 M262.753,166.67c0-3.255-2.176-5.193-5.176-5.193c-3.06,0-5.137,2.228-5.137,5.193c0,2.962,2.174,5.19,5.137,5.231
					C260.517,171.901,262.753,169.941,262.753,166.67z"/>
				<path id="Shape_4_" d="M274.675,159.384h2.313l0.12,2.789c1.156-1.935,3.333-3.057,5.649-3.057
					c4.214,0.076,7.313,3.019,7.313,7.494c0,4.592-3.059,7.557-7.472,7.557c-2.078,0-4.412-0.892-5.569-2.947v9.454h-2.373v-21.291
					H274.675z M287.637,166.67c0-3.255-2.176-5.193-5.176-5.193c-3.058,0-5.138,2.228-5.138,5.193c0,2.962,2.179,5.19,5.138,5.231
					C285.422,171.901,287.637,169.941,287.637,166.67z"/>
				<polygon id="Path_5_" points="302.189,173.836 299.756,173.836 299.756,153.263 302.189,153.263 				"/>
				<path id="Shape_5_" d="M315.622,154.927c0,2.093-3.214,2.093-3.214-0.038C312.407,152.819,315.622,152.819,315.622,154.927z
					 M312.778,173.836h2.433v-14.569h-2.433V173.836z"/>
				<path id="Shape_6_" d="M338.761,171.532c-1.491,1.724-4.04,2.575-6.334,2.575c-4.551,0-7.724-2.962-7.724-7.573
					c0-4.377,3.174-7.516,7.609-7.516c4.486,0,7.92,2.729,7.351,8.525h-12.489c0.273,2.669,2.49,4.336,5.312,4.336
					c1.667,0,3.685-0.64,4.669-1.818l1.625,1.472H338.761z M337.329,165.526c-0.115-2.827-2.08-4.339-4.96-4.339
					c-2.55,0-4.785,1.532-5.195,4.321h10.174v0.019H337.329z"/>
				<path id="Shape_7_" d="M363.429,153.245v20.573h-2.293l-0.117-2.653c-1.199,1.995-3.337,2.943-5.51,2.943
					c-4.199,0-7.434-2.732-7.434-7.516c0-4.882,3.235-7.516,7.412-7.516c2.08,0,4.45,0.949,5.491,2.906v-8.698h2.414
					L363.429,153.245z M355.702,161.303c-2.863,0-5.176,1.859-5.176,5.247c0,3.353,2.313,5.254,5.176,5.254
					c2.921,0,5.198-2.111,5.198-5.291c0-3.117-2.313-5.228-5.236-5.228h0.038V161.303z"/>
			</g>
			<g>
				<path id="Path_6_" d="M84.56,107.518l-20.314,27.895h-2.04l-20.061-27.895v45.27h-9.569V93.784c3.764,0,7.255,0,11.099,0
					l19.707,27.643l19.629-27.643h11.099v59.004H84.56V107.518z"/>
				<path id="Shape_8_" d="M107.172,172.007v-60.866h8.274l0.511,6.741c3.235-5.056,9.216-7.593,14.845-7.593
					c12.551,0.077,21.257,9.106,21.257,21.658c0,12.571-8.199,21.657-21.257,21.657c-5.119,0-11.689-1.859-14.845-6.993v25.378
					h-8.785V172.007z M143.272,131.965c0-7.845-5.294-13.231-13.315-13.231c-8.098,0-13.236,5.811-13.236,13.231
					c0,7.418,5.55,13.23,13.236,13.23C137.643,145.195,143.272,139.713,143.272,131.965z"/>
				<path id="Path_7_" d="M170.257,93.686V117.3c3.664-5.055,8.625-6.741,13.646-6.741c11.865,0,17.335,7.845,17.335,19.72v22.433
					h-8.785v-22.356c0-7.845-4.1-11.719-10.589-11.719c-6.824,0-11.607,5.559-11.607,12.398v21.657h-8.788V93.686H170.257z"/>
				<path id="Shape_9_" d="M246.379,111.141h8.533c0,13.832,0,27.741,0,41.572h-8.373l-0.433-6.742
					c-2.822,5.309-9.295,7.845-14.509,7.845c-12.295,0.079-21.592-7.749-21.592-21.928c0-13.91,9.648-21.658,21.77-21.658
					c5.978,0,11.684,2.789,14.331,7.497L246.379,111.141z M218.81,131.888c0,8.6,6.137,13.83,13.646,13.83
					c18.181,0,18.181-27.566,0-27.566C224.966,118.134,218.81,123.363,218.81,131.888z"/>
				<path id="Path_8_" d="M293.756,121.35c-3.333-3.043-6.903-3.875-11.098-3.875c-5.373-0.077-8.961,1.686-8.961,4.979
					c0.077,3.448,3.766,4.804,9.136,5.307c7.765,0.678,17.924,2.364,17.846,13.075c-0.079,7.748-7.001,13.154-17.922,13.154
					c-6.826,0-13.65-1.511-19.198-7.671l4.606-6.161c3.922,4.3,9.806,6.065,14.768,6.161c4.179,0,8.882-1.513,8.963-5.405
					c0.077-3.72-3.493-5.153-9.73-5.734c-7.938-0.756-17.057-3.293-17.156-12.477c0-9.182,9.648-12.648,17.491-12.648
					c6.492,0,11.533,1.432,16.219,5.559L293.756,121.35z"/>
				<path id="Shape_10_" d="M319.367,98.918c0,7.166-10.924,7.166-10.924,0C308.426,91.846,319.367,91.846,319.367,98.918z
					 M309.462,110.985v41.728h8.788v-41.728H309.462z"/>
				<path id="Path_9_" d="M357.074,121.35c-3.331-3.043-6.92-3.875-11.095-3.875c-5.376-0.077-8.966,1.686-8.966,4.979
					c0.08,3.448,3.768,4.804,9.139,5.307c7.765,0.678,17.922,2.364,17.846,13.075c-0.08,7.748-7.001,13.154-17.924,13.154
					c-6.823,0-13.649-1.511-19.198-7.671l4.609-6.161c3.922,4.3,9.821,6.065,14.768,6.161c4.174,0,8.881-1.513,8.96-5.405
					c0.08-3.72-3.49-5.153-9.727-5.734c-7.94-0.756-17.06-3.293-17.156-12.477c0-9.182,9.647-12.648,17.489-12.648
					c6.493,0,11.531,1.432,16.216,5.559L357.074,121.35z"/>
			</g>
		</g>
		<g>
			<g id="Path_10_" transform="translate(12.638298, 0.000000)">
				
					<linearGradient id="SVGID_1_" gradientUnits="userSpaceOnUse" x1="-225.4273" y1="545.8472" x2="-228.1824" y2="545.8472" gradientTransform="matrix(17.5436 0 0 -21.5574 3981.8613 11880.375)">
					<stop  offset="0" style="stop-color:#9055A2"/>
					<stop  offset="0.1862" style="stop-color:#9D4D98"/>
					<stop  offset="0.5455" style="stop-color:#BB3182"/>
					<stop  offset="0.6917" style="stop-color:#C81A78"/>
				</linearGradient>
				<path style="fill:url(#SVGID_1_);" d="M27.055,127.659l-41.84-44.027c-8.397,8.145-8.687,21.612-0.659,30.128l27.912,29.266"/>
				
					<linearGradient id="SVGID_00000134937340886540242490000015502385594394257807_" gradientUnits="userSpaceOnUse" x1="-224.0827" y1="528.657" x2="-222.9235" y2="527.5347" gradientTransform="matrix(8.9732 0 0 -9.3789 2022.7397 5085.4448)">
					<stop  offset="0" style="stop-color:#FFFFFF;stop-opacity:0"/>
					<stop  offset="0.2437" style="stop-color:#C0C0C0;stop-opacity:0.2437"/>
					<stop  offset="1" style="stop-color:#000000"/>
				</linearGradient>
				
					<path style="opacity:0.64;fill:url(#SVGID_00000134937340886540242490000015502385594394257807_);enable-background:new    ;" d="
					M17.208,117.185l9.847,10.474l-14.566,15.366L2.332,132.259C7.285,127.227,12.237,122.217,17.208,117.185z"/>
				<path style="fill:#D61360;" d="M-11.808,168.611l38.863-40.952c8.55,9.043,8.395,23.705-0.348,32.576l-23.253,23.51
					c-4.179,4.226-10.929,4.226-15.106,0C-15.773,179.572-15.831,172.856-11.808,168.611z"/>
			</g>
			<g id="Path_11_" transform="translate(0.000000, 16.342105)">
				
					<linearGradient id="SVGID_00000098194423262968276490000009045219306846458303_" gradientUnits="userSpaceOnUse" x1="-216.5491" y1="525.9087" x2="-213.794" y2="525.9087" gradientTransform="matrix(16.3079 0 0 -20.3139 3494.7837 10871.2988)">
					<stop  offset="0" style="stop-color:#0B9DD4"/>
					<stop  offset="0.8475" style="stop-color:#A4CE49"/>
				</linearGradient>
				<path style="fill:url(#SVGID_00000098194423262968276490000009045219306846458303_);" d="M-36.677,175.426l38.435,40.6
					c8.397-8.143,8.687-21.612,0.659-30.128l-24.528-25.839"/>
				
					<linearGradient id="SVGID_00000058550942955104429570000015284936358362210184_" gradientUnits="userSpaceOnUse" x1="-214.5107" y1="507.6788" x2="-215.67" y2="508.8012" gradientTransform="matrix(8.9732 0 0 -9.3789 1903.2181 4937.3237)">
					<stop  offset="0" style="stop-color:#FFFFFF;stop-opacity:0"/>
					<stop  offset="0.2437" style="stop-color:#C0C0C0;stop-opacity:0.2437"/>
					<stop  offset="1" style="stop-color:#000000"/>
				</linearGradient>
				
					<path style="opacity:0.64;fill:url(#SVGID_00000058550942955104429570000015284936358362210184_);enable-background:new    ;" d="
					M-26.832,185.898l-9.845-10.472l14.566-15.366l10.155,10.768C-16.908,175.858-21.879,180.868-26.832,185.898z"/>
				
					<linearGradient id="SVGID_00000036939152028871192710000008379268425874177423_" gradientUnits="userSpaceOnUse" x1="-217.1234" y1="527.4159" x2="-213.795" y2="530.1724" gradientTransform="matrix(18.3184 0 0 -22.3834 3928.7688 11976.7168)">
					<stop  offset="0" style="stop-color:#A7DEEE"/>
					<stop  offset="1" style="stop-color:#0B9DD4"/>
				</linearGradient>
				<path style="fill:url(#SVGID_00000036939152028871192710000008379268425874177423_);" d="M-36.329,142.853l25.631-25.938
					c4.158-4.21,10.91-4.21,15.05,0c4.102,4.15,4.158,10.844,0.154,15.092l-41.202,43.418
					C-45.247,166.362-45.074,151.721-36.329,142.853z"/>
			</g>
		</g>
	</g>
</g>
</svg>
