<?xml version="1.0" encoding="iso-8859-1"?>
<!-- Generator: Adobe Illustrator 26.0.1, SVG Export Plug-In . SVG Version: 6.00 Build 0)  -->
<svg version="1.1" id="Layer_1" xmlns="http://www.w3.org/2000/svg" xmlns:xlink="http://www.w3.org/1999/xlink" x="0px" y="0px"
	 viewBox="250 250 500 500" style="enable-background:new 0 0 1000 1000;" xml:space="preserve">
<g transform="matrix(.362894 0 0 .362894 94.1981 99.8412)">
	<path style="fill:white;" d="M420.514,734.88h1386.631v727.901H420.514L420.514,734.88z"/>
	<path style="fill:#E98300;" d="M1012.088,1000.603H733.398c-22.599,0-40.924-18.323-40.924-40.924
		c0-22.549,18.325-40.872,40.924-40.872h278.689c22.599,0,40.923,18.323,40.923,40.872
		C1053.01,982.28,1034.687,1000.603,1012.088,1000.603z M998.329,1164.433c0-22.65-18.324-40.973-40.923-40.973H678.665
		c-22.599,0-40.872,18.323-40.872,40.923c0,22.55,18.273,40.874,40.872,40.874h278.741
		C979.955,1205.256,998.279,1186.983,998.329,1164.433L998.329,1164.433z M555.658,1061.71c0,10.866,4.276,21.33,11.985,28.989
		c7.672,7.71,18.084,12.036,28.989,12.036H875.32c22.599,0,40.923-18.323,40.923-40.874c0-22.599-18.323-40.923-40.923-40.923
		H596.631c-10.854,0-21.278,4.276-28.938,11.936C560.035,1040.494,555.708,1050.858,555.658,1061.71z M1132.933,921.071
		l-17.38,64.151h86.209l-58.655,217.581h74.225l58.315-217.581h86.223l16.94-64.151H1132.933z M1400.329,921.071l-75.458,281.732
		h226.372l16.513-62.339h-153.568l13.846-51.236h137.168l15.57-56.845h-137.459l13.507-49.174H1609.9l16.902-62.05H1400.43
		l-0.101-0.091V921.071z M1073.057,1307.79c6.187,0,12.085-2.516,16.399-6.981l-6.237-7.91c-2.503,2.502-5.886,4.024-9.432,4.226
		c-2.403,0-4.716-0.981-6.339-2.804c-1.623-1.812-2.353-4.227-2.063-6.628c-0.389-7.47,4.968-13.947,12.389-14.979
		c3.974-0.151,7.658,2.063,9.432,5.647l9.432-6.591c-3.634-6.287-10.464-9.921-17.644-9.432c-6.968-0.239-13.747,2.365-18.713,7.232
		c-4.955,4.854-7.76,11.544-7.71,18.512c-0.201,5.408,1.963,10.615,5.899,14.35c3.924,3.735,9.281,5.546,14.639,5.056
		L1073.057,1307.79z M1117.463,1307.79c13.607-0.302,24.612-11.256,24.901-24.914c0.302-5.496-1.812-10.803-5.785-14.639
		c-3.986-3.785-9.394-5.697-14.891-5.156c-13.607,0.291-24.56,11.294-24.913,24.901c-0.19,5.458,1.974,10.766,5.948,14.501
		c3.975,3.735,9.382,5.597,14.84,5.005L1117.463,1307.79z M1118.004,1297.327c-2.502,0.138-5.017-0.792-6.828-2.604
		c-1.824-1.772-2.754-4.276-2.603-6.828c-0.101-7.182,5.256-13.268,12.375-14.148c2.552-0.151,5.068,0.78,6.828,2.552
		c1.824,1.812,2.755,4.326,2.604,6.88c0,7.067-5.257,13.066-12.275,13.947L1118.004,1297.327z M1144.038,1306.759h12.286
		l6.477-24.813c0.453-4.867,4.578-8.602,9.432-8.602c1.535-0.239,3.106,0.201,4.276,1.233c1.132,1.031,1.774,2.502,1.673,4.074
		c0,1.283-0.201,2.603-0.542,3.886l-6.338,23.631h12.286l6.238-23.09c0.78-2.653,1.231-5.408,1.37-8.199
		c0.05-3.346-1.319-6.54-3.785-8.753c-2.401-2.264-5.697-3.384-9.03-3.044c-4.427,0.252-8.602,2.113-11.695,5.307l1.131-5.307
		h-12.236L1144.038,1306.759z M1193.852,1306.759h12.187l6.879-24.813c0.44-4.867,4.515-8.602,9.432-8.602
		c1.522-0.239,3.093,0.201,4.225,1.233c1.182,1.031,1.761,2.502,1.711,4.074c-0.041,1.283-0.239,2.603-0.579,3.886l-6.289,23.631
		h12.124l6.25-23.09c0.78-2.552,1.22-5.156,1.422-7.809c0.151-3.447-1.182-6.779-3.735-9.143c-2.503-2.353-5.949-3.485-9.382-3.044
		c-4.477,0.252-8.652,2.113-11.797,5.307l1.333-5.307h-12.286L1193.852,1306.759z M1257.815,1289.517h29.529
		c1.271-3.007,2.013-6.201,2.164-9.432c0.239-4.678-1.573-9.244-4.917-12.489c-3.384-3.232-7.962-4.905-12.628-4.515
		c-14.148,0.151-25.491,11.646-25.542,25.744c-0.302,5.257,1.723,10.412,5.546,14.048c3.836,3.634,9.093,5.408,14.35,4.817
		c5.985,0.151,11.834-1.874,16.499-5.647l-5.597-7.57c-2.703,2.112-5.985,3.345-9.432,3.395c-2.452,0.389-5.005-0.302-6.929-1.975
		c-1.912-1.659-2.994-4.075-2.944-6.577L1257.815,1289.517z M1258.947,1281.945c1.522-5.458,6.439-9.231,12.087-9.432
		c1.81-0.289,3.634,0.252,5.005,1.472c1.382,1.233,2.112,2.993,2.062,4.867c0.151,0.931,0.151,1.86,0,2.804h-18.865l-0.289,0.291
		V1281.945z M1315.54,1307.79c6.138-0.05,11.986-2.554,16.211-6.981l-6.238-7.91c-2.503,2.552-5.848,4.024-9.432,4.226
		c-2.403,0-4.716-0.981-6.339-2.804c-1.571-1.812-2.351-4.227-2.011-6.628c-0.44-7.47,4.955-13.947,12.324-14.979
		c3.986-0.101,7.671,2.113,9.432,5.647l9.432-6.591c-3.584-6.287-10.414-9.921-17.632-9.432
		c-13.947,0.101-25.254,11.407-25.354,25.354c-0.289,5.257,1.673,10.413,5.358,14.148c3.685,3.785,8.791,5.848,14.048,5.647
		L1315.54,1307.79z M1352.527,1307.79c3.056,0.05,6.05-0.593,8.841-1.774l2.856-10.414c-1.962,0.881-4.074,1.371-6.238,1.422
		c-0.931,0.39-2.013,0.252-2.754-0.44c-0.78-0.64-1.082-1.672-0.83-2.653c-0.05-0.642-0.05-1.271,0-1.912l4.817-18.084h10.061
		l2.854-10.462h-9.822l2.942-11.055h-12.186l-2.892,10.665h-5.207l-2.856,10.462h5.207l-5.207,19.896
		c-0.439,1.774-0.728,3.584-0.728,5.408c0.239,2.603,1.521,5.005,3.634,6.628c2.062,1.621,4.716,2.263,7.319,1.823l0.19,0.491
		L1352.527,1307.79z M1370.712,1307.047h11.986l11.594-43.966h-12.286L1370.712,1307.047z M1382.698,1258.755h12.815l3.005-10.854
		h-12.827L1382.698,1258.755z M1406.278,1306.845h11.054l28.297-43.375h-13.117l-17.103,28.297l-1.962-28.297h-11.884
		L1406.278,1306.845z M1442.045,1306.845h12.224l11.797-43.765h-12.137L1442.045,1306.845z M1454.57,1259.006h13.016l2.893-10.816
		h-12.326L1454.57,1259.006z M1481.433,1307.588c3.057,0.05,6.1-0.541,8.893-1.772l2.804-10.363
		c-1.962,0.893-4.125,1.333-6.289,1.384c-0.78,0.238-1.672,0.05-2.313-0.453c-0.629-0.491-1.032-1.271-1.032-2.063
		c-0.041-0.629-0.041-1.271,0-1.911l4.817-18.124h10.124l2.804-10.462h-10.074l2.893-11.005h-12.137l-2.25,10.262h-5.207
		l-2.854,10.464h5.407l-5.205,19.555c-0.492,1.711-0.794,3.535-0.844,5.345c0.151,2.654,1.384,5.119,3.447,6.83
		c2.011,1.672,4.666,2.414,7.319,2.024l-0.302,0.291V1307.588z M1506.535,1319.674c7.721-0.291,14.601-4.968,17.644-12.087
		l26.776-44.507h-13.219l-16.109,29.228l-1.975-29.228h-12.475l5.307,43.376c-0.981,1.722-2.805,2.703-4.716,2.653
		c-1.723-0.101-3.332-0.691-4.716-1.724l-6.528,8.891C1499.418,1318.492,1502.901,1319.674,1506.535,1319.674L1506.535,1319.674z"/>
</g>
</svg>
