<?xml version="1.0" encoding="utf-8"?>
<!-- Generator: Adobe Illustrator 26.0.3, SVG Export Plug-In . SVG Version: 6.00 Build 0)  -->
<svg version="1.0" id="katman_1" xmlns="http://www.w3.org/2000/svg" xmlns:xlink="http://www.w3.org/1999/xlink" x="0px" y="0px"
	 viewBox="0 0 604 456" style="enable-background:new 0 0 604 456;" xml:space="preserve">
<style type="text/css">
	
		.st0{clip-path:url(#SVGID_00000145043215566232617840000011403028295676730789_);fill-rule:evenodd;clip-rule:evenodd;fill:#9D9D9C;}
</style>
<g>
	<defs>
		<rect id="SVGID_1_" x="52" y="-22" width="500" height="500"/>
	</defs>
	<clipPath id="SVGID_00000000186204305938913180000004380637317672811937_">
		<use xlink:href="#SVGID_1_"  style="overflow:visible;"/>
	</clipPath>
	
		<path style="clip-path:url(#SVGID_00000000186204305938913180000004380637317672811937_);fill-rule:evenodd;clip-rule:evenodd;fill:#9D9D9C;" d="
		M176.4,200.2c0,69,56.1,125.1,125,125.1c68.9,0,125-56.1,125-125.1c0-68.9-56.1-125-125-125C232.5,75.2,176.4,131.2,176.4,200.2
		 M453.2,200.2c0,83.9-68,151.8-151.8,151.8c-83.8,0-151.8-68-151.8-151.8c0-83.8,68-151.8,151.8-151.8
		C385.3,48.4,453.2,116.4,453.2,200.2"/>
	
		<path style="clip-path:url(#SVGID_00000000186204305938913180000004380637317672811937_);fill-rule:evenodd;clip-rule:evenodd;fill:#9D9D9C;" d="
		M212.1,200.2c0,49.3,40,89.3,89.3,89.3c49.2,0,89.3-40.1,89.3-89.3c0-49.2-40.1-89.3-89.3-89.3
		C252.2,110.9,212.1,150.9,212.1,200.2 M301.4,84.1c64,0,116.1,52.1,116.1,116.1c0,64-52.1,116.1-116.1,116.1
		c-64,0-116.1-52.1-116.1-116.1C185.4,136.2,237.4,84.1,301.4,84.1"/>
	
		<polygon style="clip-path:url(#SVGID_00000000186204305938913180000004380637317672811937_);fill-rule:evenodd;clip-rule:evenodd;fill:#9D9D9C;" points="
		225.4,150.6 222.3,151.8 353.9,151.8 342.7,186.1 300.3,186.1 273.5,268.9 237.9,268.9 266,183.7 211.1,183.7 	"/>
	
		<polygon style="clip-path:url(#SVGID_00000000186204305938913180000004380637317672811937_);fill-rule:evenodd;clip-rule:evenodd;fill:#9D9D9C;" points="
		317.1,201.4 352.1,202.7 312.1,331.3 275.3,327.6 	"/>
	
		<polygon style="clip-path:url(#SVGID_00000000186204305938913180000004380637317672811937_);fill-rule:evenodd;clip-rule:evenodd;fill:#9D9D9C;" points="
		164.7,371 174.7,371 165.1,417.3 155.1,417.3 	"/>
	
		<polygon style="clip-path:url(#SVGID_00000000186204305938913180000004380637317672811937_);fill-rule:evenodd;clip-rule:evenodd;fill:#9D9D9C;" points="
		212.6,371 222.9,371 235.2,403.9 235.3,403.9 241.7,371 250.9,371 241.3,417.3 231.3,417.3 218.9,384.8 218.8,384.8 212.3,417.3 
		203,417.3 	"/>
	
		<path style="clip-path:url(#SVGID_00000000186204305938913180000004380637317672811937_);fill-rule:evenodd;clip-rule:evenodd;fill:#9D9D9C;" d="
		M279.1,417.3h19c17.4,0,26.2-12.1,26.2-28.2c0-11.3-6.6-18-19.2-18h-16.4L279.1,417.3z M296.9,379.6h7.5c7.1,0,9.9,4.5,9.9,11.2
		c0,9.8-5.7,17.9-15.8,17.9l-7.7,0L296.9,379.6z"/>
	
		<polygon style="clip-path:url(#SVGID_00000000186204305938913180000004380637317672811937_);fill-rule:evenodd;clip-rule:evenodd;fill:#9D9D9C;" points="
		364.8,371 374.8,371 365.2,417.3 355.3,417.3 	"/>
	
		<path style="clip-path:url(#SVGID_00000000186204305938913180000004380637317672811937_);fill-rule:evenodd;clip-rule:evenodd;fill:#9D9D9C;" d="
		M398.5,417.3H409l5.7-10.3h16.9l1.5,10.3h9.9l-7.6-46.2h-10.2L398.5,417.3z M428.4,381h0.2l2.2,18.4h-12.1L428.4,381z"/>
</g>
</svg>
