<svg id="SvgjsSvg1001" width="550" height="550" xmlns="http://www.w3.org/2000/svg" version="1.1" xmlns:xlink="http://www.w3.org/1999/xlink" xmlns:svgjs="http://svgjs.com/svgjs"><defs id="SvgjsDefs1002"></defs><g id="SvgjsG1008"><svg xmlns="http://www.w3.org/2000/svg" enable-background="new 0 0 2000 2000" viewBox="0 0 2000 2000" width="550" height="550"><path fill="#ede4f1" fill-rule="evenodd" d="M958.94,514.97c185.78,0,164.57,235.04,298.69,306.68c177.51,94.82,482.9,47.87,482.9,210.61
			c0,285.69-349.93,561.63-781.59,561.63c-431.66,0-717.64-330.13-717.64-615.82S527.28,514.97,958.94,514.97z" clip-rule="evenodd" class="colorede4f1 svgShape"></path><path fill="#2b2870" fill-rule="evenodd" d="M642.28,406.11h1058.97c31.59,0,57.44,25.85,57.44,57.44v650.94c0,31.59-25.85,57.44-57.44,57.44H642.28
			c-31.6,0-57.44-25.85-57.44-57.44V463.56C584.84,431.96,610.69,406.11,642.28,406.11z" clip-rule="evenodd" class="color2b2870 svgShape"></path><path fill="#c2b5d9" fill-rule="evenodd" d="M658.65,424.28h1026.24c30.6,0,55.64,25.04,55.64,55.64v618.22c0,30.6-25.04,55.64-55.64,55.64H658.65
			c-30.6,0-55.64-25.04-55.64-55.64V479.92C603.01,449.32,628.04,424.28,658.65,424.28z" clip-rule="evenodd" class="colorc2b5d9 svgShape"></path><path fill="#5a53a2" fill-rule="evenodd" d="M1684.89,424.28H658.65c-30.6,0-55.64,25.04-55.64,55.64v29.36h1137.52v-29.36
			C1740.53,449.32,1715.49,424.28,1684.89,424.28z" clip-rule="evenodd" class="color5a53a2 svgShape"></path><rect width="1055.15" height="158.11" x="644.19" y="949.98" fill="#ede4f1" fill-rule="evenodd" clip-rule="evenodd" class="colorede4f1 svgShape"></rect><path fill="#ffffff" fill-rule="evenodd" d="M683.32,447.46c11.95,0,21.64,9.69,21.64,21.64s-9.69,21.64-21.64,21.64c-11.95,0-21.64-9.69-21.64-21.64
			S671.37,447.46,683.32,447.46L683.32,447.46z M871.87,447.46c11.95,0,21.64,9.69,21.64,21.64s-9.69,21.64-21.64,21.64
			c-11.95,0-21.64-9.69-21.64-21.64S859.92,447.46,871.87,447.46L871.87,447.46z M777.59,447.46c11.95,0,21.64,9.69,21.64,21.64
			s-9.69,21.64-21.64,21.64c-11.95,0-21.64-9.69-21.64-21.64S765.64,447.46,777.59,447.46z" clip-rule="evenodd" class="colorfff svgShape"></path><path fill="#d1c6e2" fill-rule="evenodd" d="M1573.58,1507.18c72.17,0,131.02-13.24,131.02-29.48c0-16.24-58.86-29.48-131.02-29.48
			c-72.17,0-131.02,13.24-131.02,29.48C1442.55,1493.93,1501.41,1507.18,1573.58,1507.18z" clip-rule="evenodd" class="colord1c6e2 svgShape"></path><path fill="#3f4979" fill-rule="evenodd" d="M1627.58,1384.56H1524.8c-4.62,0-8.39,3.77-8.39,8.39v23.6c0,4.62,3.77,8.39,8.39,8.39h102.78
			c4.62,0,8.39-3.77,8.39-8.39v-23.6C1635.97,1388.33,1632.19,1384.56,1627.58,1384.56z" clip-rule="evenodd" class="color3f4979 svgShape"></path><polygon fill="#3f4979" fill-rule="evenodd" points="1626.66 1424.94 1525.72 1424.94 1535.63 1477.11 1616.75 1477.11" clip-rule="evenodd" class="color3f4979 svgShape"></polygon><polygon fill="#1b2452" fill-rule="evenodd" points="1525.72 1424.94 1626.66 1424.94 1624.87 1434.37 1527.51 1434.37" clip-rule="evenodd" class="color1b2452 svgShape"></polygon><path fill="#5a53a2" fill-rule="evenodd" d="M1566.52,1180.05c-17.16,47.52-19.15,103.72-5.97,168.58c3.33,9.84,5.87,20.59,7.61,32.25
			c0.33,1.22,0.66,2.45,0.99,3.67h6.28c1.5-24.24,2-48.87,1.5-73.91c-0.76-37.93-3.81-76.8-9.15-116.62
			c-0.14-1.07,0.62-2.05,1.69-2.19c1.07-0.14,2.05,0.62,2.19,1.69c5.36,39.95,8.42,78.96,9.18,117.05
			c0.5,25.08,0.01,49.74-1.48,73.99h4.43c2.27-21.82,6.96-41.15,14.07-57.99C1605.87,1269.53,1595.43,1220.69,1566.52,1180.05z" clip-rule="evenodd" class="color5a53a2 svgShape"></path><path fill="#9488c0" fill-rule="evenodd" d="M1667,1256.42c-2.64,42.68-24.59,85.39-65.84,128.14h-9.02c6.66-15.47,14.15-30.85,22.46-46.13
			c13.41-24.66,28.97-49.09,46.69-73.28c0.47-0.65,0.2-1.58-0.61-2.07c-0.81-0.49-1.85-0.36-2.32,0.29
			c-17.77,24.27-33.39,48.79-46.85,73.55c-8.59,15.79-16.29,31.67-23.12,47.65h-4.61C1590.46,1320.23,1618.2,1277.51,1667,1256.42z" clip-rule="evenodd" class="color9488c0 svgShape"></path><path fill="#b4a5d0" fill-rule="evenodd" d="M1488.24,1276.14c2.42,38.05,20.93,74.19,55.54,108.42h14.12c-5.63-11.78-11.81-23.43-18.55-34.95
			c-13.08-22.37-28.26-44.26-45.53-65.67c-0.46-0.58-0.2-1.51,0.59-2.09c0.79-0.57,1.8-0.57,2.26,0.01
			c17.33,21.48,32.56,43.45,45.7,65.91c7.09,12.12,13.57,24.39,19.44,36.79h6.87C1560.97,1326.53,1534.17,1290.38,1488.24,1276.14z" clip-rule="evenodd" class="colorb4a5d0 svgShape"></path><path fill="#ede4f1" fill-rule="evenodd" d="M712.62,547.13h918.29c13.29,0,24.16,7.37,24.16,16.38l0,0c0,9.01-10.87,16.38-24.16,16.38H712.62
			c-13.29,0-24.17-7.37-24.17-16.38l0,0C688.46,554.5,699.33,547.13,712.62,547.13L712.62,547.13z M712.62,891.02h918.29
			c13.29,0,24.16,7.37,24.16,16.38l0,0c0,9.01-10.87,16.38-24.16,16.38H712.62c-13.29,0-24.17-7.37-24.17-16.38l0,0
			C688.46,898.39,699.33,891.02,712.62,891.02L712.62,891.02z M712.62,833.7h918.29c13.29,0,24.16,7.37,24.16,16.38l0,0
			c0,9.01-10.87,16.38-24.16,16.38H712.62c-13.29,0-24.17-7.37-24.17-16.38l0,0C688.46,841.07,699.33,833.7,712.62,833.7
			L712.62,833.7z M712.62,776.39h918.29c13.29,0,24.16,7.37,24.16,16.38l0,0c0,9.01-10.87,16.38-24.16,16.38H712.62
			c-13.29,0-24.17-7.37-24.17-16.38l0,0C688.46,783.76,699.33,776.39,712.62,776.39L712.62,776.39z M712.62,719.07h918.29
			c13.29,0,24.16,7.37,24.16,16.38l0,0c0,9.01-10.87,16.38-24.16,16.38H712.62c-13.29,0-24.17-7.37-24.17-16.38l0,0
			C688.46,726.44,699.33,719.07,712.62,719.07L712.62,719.07z M712.62,661.76h918.29c13.29,0,24.16,7.37,24.16,16.38l0,0
			c0,9.01-10.87,16.38-24.16,16.38H712.62c-13.29,0-24.17-7.37-24.17-16.38l0,0C688.46,669.13,699.33,661.76,712.62,661.76
			L712.62,661.76z M712.62,604.44h918.29c13.29,0,24.16,7.37,24.16,16.38l0,0c0,9.01-10.87,16.38-24.16,16.38H712.62
			c-13.29,0-24.17-7.37-24.17-16.38l0,0C688.46,611.81,699.33,604.44,712.62,604.44z" clip-rule="evenodd" class="colorede4f1 svgShape"></path><path fill="#d1c6e2" fill-rule="evenodd" d="M731.38,1527.66c248.81,0,451.74-24.91,451.74-55.46c0-30.54-202.93-55.46-451.74-55.46
			c-248.81,0-451.74,24.91-451.74,55.46C279.64,1502.75,482.57,1527.66,731.38,1527.66z" clip-rule="evenodd" class="colord1c6e2 svgShape"></path><path fill="#fab688" fill-rule="evenodd" d="M407.25,848.75c1.56-5.59,2.99-11.45,4.12-14.88c49.8-2.87,46.1-15.48,44.8-21.18
			c-7.5-27.27-11.97-44.46-4.13-51.73c3.5,2.06,10.85,6.77,12.8,18.64c3.26-1.59,7.44-3.7,8.28-7.18
			c2.13-10.43,3.78-32.43,16.01-33.16c1.5,9.87,2.68,20.31,3.54,31.32c6.4,6.15,5.07,28.43-1.49,54
			c2.69,14.68-6.51,22.46-27.58,23.34l0.36,4.52C445.14,848.29,423.35,847.23,407.25,848.75z" clip-rule="evenodd" class="colorfab688 svgShape"></path><path fill="#071023" fill-rule="evenodd" d="M456.18,812.69c1.3,5.7,5,18.3-44.8,21.18c-21.66-5.35-39.46-25.21-41.84-33.68
			c-24.32-50.59,4.46-71.12,19.78-78.5c7.75-49.42,78.78-4.06,115.36-27.18c13.9,20.11-4.35,44.55-15.53,44.75
			c-12.24,0.73-13.89,22.73-16.02,33.16c-0.83,3.48-5.01,5.6-8.28,7.18c-1.95-11.87-9.3-16.58-12.8-18.64
			C444.21,768.23,448.68,785.42,456.18,812.69z" clip-rule="evenodd" class="color071023 svgShape"></path><path fill="#72717b" fill-rule="evenodd" d="M871.46,1042.66H621.08c-12.89,0-19.61-8.31-19.61-22.3h281.89h0.77c2.72,0.01,6.47,1.53,3.87,9.85
			C885.75,1037.06,878.3,1042.66,871.46,1042.66z" clip-rule="evenodd" class="color72717b svgShape"></path><path fill="#733e19" fill-rule="evenodd" d="M381.14,1042.66h730.23c19.13,0-0.43,38.26-9.69,38.26l-38.65,0l22.4,377.98c1.82,30.72-17.78,25.58-20.26,0
			l-36.65-377.98H463.99l-35.64,377.98c-2.39,25.4-22.01,30.89-20.26,0l21.4-377.98h-38.66
			C382.7,1080.92,361.18,1042.66,381.14,1042.66z" clip-rule="evenodd" class="color733e19 svgShape"></path><path fill="#72717b" fill-rule="evenodd" d="M938.68,873.07h-160.1c-4.76,0-10.3,3.89-12.31,8.65l-54.98,129.98c-2.01,4.76,0.23,8.65,4.99,8.65h160.1
			c4.76,0,10.3-3.89,12.31-8.65l54.98-129.98C945.68,876.97,943.44,873.07,938.68,873.07z" clip-rule="evenodd" class="color72717b svgShape"></path><path fill="#ede4f1" fill-rule="evenodd" d="M933.1,882.5H778.6c-1.19,0.08-3.19,1.79-3.65,2.9l-53.09,125.52h154.5c1.19-0.08,3.18-1.79,3.65-2.9
			L933.1,882.5z" clip-rule="evenodd" class="colorede4f1 svgShape"></path><path fill="#f59b1d" fill-rule="evenodd" d="M505.77,879.01c-49.8-10.03-90.96-11.93-123.49-5.72c-24.1,2.22-37.56,15.07-40.36,38.56
			c-16.32,93.7-9.07,190.54,25.71,303.67c3.12,8.77,31.22,15.54,73.08,10.19c93.88-8,126.86-23.11,126.66-76.96
			c-2.95-37.86-20.82-94.54-53.61-170.04C489.37,957.7,466.03,895.25,505.77,879.01z" clip-rule="evenodd" class="colorf59b1d svgShape"></path><path fill="#ea7924" fill-rule="evenodd" d="M382.28,873.29c28.19-5.09,62.75-4.2,103.68,2.68c-4.68-7.75-8.78-14.76-12.31-21.05
			c-33.38-10-82.98-8.49-89.16,1.06C383.05,863.92,382.51,869.14,382.28,873.29z" clip-rule="evenodd" class="colorea7924 svgShape"></path><path fill="#1b2452" fill-rule="evenodd" d="M729.57,1188.04c-41.7-7.77-96.56-13.43-164.6-16.97c-9.07,36.03-44.91,47.87-124.27,54.63
			c-21.94,2.81-40.1,2.28-52.86-0.11c29.58,54.37,129.71,63.54,300.39,27.51c13.84,50.96,23.4,55.43,60.71,190.38
			c18.14,7.12,44.52-8.07,40.54-23.83c-17.74-60.45-9.41-116.28-22.51-179.98C761.33,1212.23,752.34,1192.65,729.57,1188.04z" clip-rule="evenodd" class="color1b2452 svgShape"></path><path fill="#071023" fill-rule="evenodd" d="M537.73,1274.21c-2.71,54.42,11.4,75.69,12.6,165.01c12.88,7.34,34.87,9.11,43.63-6.36
			c2.11-71.8,4.43-125.47,6.96-164.43C578.1,1271.48,557.04,1273.41,537.73,1274.21z" clip-rule="evenodd" class="color071023 svgShape"></path><path fill="#f59b1d" fill-rule="evenodd" d="M628.45,1000.68C566.37,924.56,525.48,884,505.77,879c-39.74,16.24-16.4,78.7,7.98,99.7
			c22.55,26.12,55.31,49.71,98.29,70.77c20.26,8.25,70.66,7.05,151.2-3.61c5.42-12.35,3.87-21.79-4.67-28.31
			C687.08,1008.35,643.71,1002.73,628.45,1000.68z" clip-rule="evenodd" class="colorf59b1d svgShape"></path><path fill="#ea7924" fill-rule="evenodd" d="M661.75 993.84c-10.62 1.85-22.67 2.97-36.16 3.33.95 1.16 1.9 2.33 2.86 3.5 7.21.97 20.7 2.73 40.48 5.3C667.58 999.84 665.19 995.79 661.75 993.84zM541.8 1048.57c23.3-2.24 40.48-5.17 51.54-8.76-33.91-18.54-60.44-38.91-79.6-61.11C524.79 1004.13 534.15 1027.42 541.8 1048.57z" clip-rule="evenodd" class="colorea7924 svgShape"></path><path fill="#fab688" fill-rule="evenodd" d="M764.26,1043.35c5.15,1.51,10.08,2.07,14.8,1.69c14.77-5.23,19.8-17.38,27.71-20.18
			c5.66,0.38,11.43,1.23,17.32,2.56c10.41-1.2,2.83-6.77-22.74-16.72c-15.37,0.33-28.94,3.2-40.71,8.62
			C766.82,1025.26,768.03,1033.27,764.26,1043.35L764.26,1043.35z M688.93,991.57c-7.3,0.69-15.46,2.18-24.46,4.47
			c2.02,2.25,3.51,5.56,4.47,9.93c7.27,0.94,15.39,1.99,24.36,3.15c1.89-2.1,3.56-3.75,5.01-4.95c14.92,3.27,21.91,4.49,21.2,2.15
			C713.34,1001.17,703.15,996.25,688.93,991.57z" clip-rule="evenodd" class="colorfab688 svgShape"></path><path fill="#071023" fill-rule="evenodd" d="M774.43,1478.23c53.69,2.57,80.49,0.96,80.42-4.82c-0.21-14.3-31.68-9.22-56.78-33.28
			c-0.59,15.34-18.8,19.96-31.63,14.91c-6.07-4.6-10.94-5.6-14.61-3.01c-2.86,4.83-3.81,11.25-2.86,19.28
			C751.96,1476.31,760.44,1478.62,774.43,1478.23L774.43,1478.23z M570.13,1473.24c53.69,2.57,60.54-6.7,60.47-12.48
			c-0.82-10.01-16.73-2.83-38.85-21.24c-0.59,15.34-11.42,18.6-24.25,13.55c-6.07-4.59-10.03-7.85-19.13-0.6
			c-2.86,4.83-3.81,8.98-2.86,17C548.49,1474.49,556.14,1473.64,570.13,1473.24z" clip-rule="evenodd" class="color071023 svgShape"></path><path fill="#fab688" fill-rule="evenodd" d="M753.31,1444.74c0.34,2.11,0.58,4.18,0.71,6.21c3.35-1.01,7.49,0.35,12.42,4.08
			c11.66,4.59,27.76,1.19,31.04-10.97c-3.81-3.47-6.86-8.41-9.14-14.8C783.33,1439.65,766.99,1447.44,753.31,1444.74L753.31,1444.74
			z M554.37,1441.21c-0.23,2.69-0.66,5.42-1.3,8.2c5.98-2.89,9.52-0.04,14.43,3.67c11.73,4.61,21.8,2.29,23.88-9.88
			c-0.92-1.43-1.68-2.9-2.26-4.42C579.91,1446.63,565.2,1445.8,554.37,1441.21z" clip-rule="evenodd" class="colorfab688 svgShape"></path><path fill="#733e19" fill-rule="evenodd" d="M339.53,1244.65h15.41l-13.58-115.06h-24.84c-19.97,0-38.23-16.34-40.59-36.3l-10.63-90.05
			c-2.36-19.97,12.05-36.3,32.02-36.3h81.62c19.97,0,38.23,16.34,40.59,36.3l10.63,90.05c2.36,19.97-12.05,36.3-32.02,36.3h-24.84
			l13.58,115.06h236.4c10.6,0,19.28,8.67,19.28,19.28l0,0c0,10.6-8.68,19.28-19.28,19.28H486.9v54.59h7.83v83.73l82.99,5.69
			c3.55,0.24,6.48,2.93,6.48,6.48v6.48H370.93v-7.53c0-2.98,2.45-5.22,5.42-5.42l84.04-5.69v-83.73h7.83v-54.59H339.53
			c-10.6,0-19.28-8.67-19.28-19.28l0,0C320.26,1253.33,328.93,1244.65,339.53,1244.65L339.53,1244.65z M583.28,1476.81
			c7.65,0,13.86-6.2,13.86-13.86c0-7.65-6.2-13.86-13.86-13.86c-7.65,0-13.86,6.2-13.86,13.86
			C569.43,1470.6,575.63,1476.81,583.28,1476.81L583.28,1476.81z M440.36,1449.09c7.65,0,13.86,6.2,13.86,13.86
			c0,7.65-6.2,13.86-13.86,13.86c-7.65,0-13.86-6.2-13.86-13.86C426.5,1455.3,432.7,1449.09,440.36,1449.09L440.36,1449.09z
			 M518.68,1449.09c7.65,0,13.86,6.2,13.86,13.86c0,7.65-6.2,13.86-13.86,13.86c-7.65,0-13.86-6.2-13.86-13.86
			C504.82,1455.3,511.02,1449.09,518.68,1449.09L518.68,1449.09z M375.75,1449.09c7.65,0,13.86,6.2,13.86,13.86
			c0,7.65-6.2,13.86-13.86,13.86c-7.65,0-13.86-6.2-13.86-13.86C361.89,1455.3,368.1,1449.09,375.75,1449.09z" clip-rule="evenodd" class="color733e19 svgShape"></path><path fill="#622b26" fill-rule="evenodd" d="M419.53,1003.24l10.63,90.05c2.36,19.97-12.05,36.3-32.02,36.3h-24.84l11.25,95.3
			c1.06,0.24,2.16,0.47,3.31,0.69c1.46,0.28,3,0.53,4.6,0.75l-10.48-88.77h18.44c23.45,0,40.41-19.45,37.67-42.66l-10.63-90.05
			c-2.68-22.74-23.47-39.05-46.42-39.05h-45.86c-0.09,1.14,0,0-0.08,1.13h43.84C398.91,966.94,417.17,983.27,419.53,1003.24z" clip-rule="evenodd" class="color622b26 svgShape"></path><path fill="#071023" fill-rule="evenodd" d="M649.89,1260.65c-2.54-11.09-12.51-19.41-24.34-19.41H399.52c1.16,1.17,2.36,2.31,3.62,3.42h220.14
			c9.94,0,18.19,7.63,19.18,17.33C644.91,1261.55,647.39,1261.1,649.89,1260.65z" clip-rule="evenodd" class="color071023 svgShape"></path><path fill="#5a53a2" fill-rule="evenodd" d="M1313.48 834.04l-20.72 12.05c-6.99 4.06-9.38 13.1-5.31 20.09l4.57 7.86c5.39 9.27 3.05 13.47 1.37 14.97-4.61 4.13-8.88 8.61-13.17 13.07-1.26 1.31-5.26 5.79-15.8-.33l-7.22-4.19c-6.99-4.06-16.03-1.67-20.09 5.32l-12.05 20.72c-4.06 6.99-1.67 16.02 5.32 20.09l7.16 4.16c9.87 5.74 9.62 8.69 8.37 12.88-1.72 5.75-3.56 11.5-4.82 17.45-1.12 5.3-.61 9.08-14.05 9.08h-8.23c-8.09 0-14.69 6.6-14.69 14.69v23.97c0 8.09 6.6 14.69 14.69 14.69h8.23c13.44 0 12.93 3.79 14.05 9.09 1.26 5.95 3.1 11.7 4.82 17.45 1.25 4.19 1.5 7.14-8.37 12.88l-7.16 4.16c-6.99 4.06-9.38 13.1-5.32 20.09l12.05 20.72c4.06 6.98 13.1 9.38 20.09 5.31l7.22-4.19c10.54-6.13 14.54-1.64 15.8-.33 4.29 4.46 8.56 8.94 13.17 13.07 1.68 1.5 4.03 5.7-1.37 14.97l-4.57 7.86c-4.06 6.99-1.67 16.02 5.31 20.09l20.72 12.05c6.99 4.06 16.02 1.68 20.09-5.32l4.56-7.84c5.48-9.42 10.87-9.04 13.14-8.32 6.61 2.1 12.71 3.46 19.53 5.24 2.49.65 6.76 2.46 6.76 13.68v8.41c0 8.09 6.6 14.69 14.69 14.69h23.97c8.09 0 14.69-6.6 14.69-14.69v-8.41c0-11.22 4.27-13.03 6.76-13.68 6.82-1.78 12.92-3.13 19.53-5.24 2.28-.72 7.67-1.1 13.15 8.32l4.56 7.84c4.06 6.99 13.1 9.38 20.09 5.32l20.72-12.05c6.98-4.06 9.38-13.1 5.31-20.09l-4.57-7.86c-5.39-9.28-3.05-13.48-1.37-14.97 4.61-4.13 8.89-8.61 13.17-13.07 1.26-1.31 5.26-5.79 15.8.33l7.22 4.19c6.99 4.06 16.02 1.67 20.09-5.31l12.05-20.72c4.06-6.98 1.67-16.02-5.32-20.09l-7.15-4.16c-9.88-5.74-9.62-8.69-8.37-12.88 1.72-5.75 3.57-11.5 4.82-17.45 1.12-5.3.62-9.09 14.05-9.09h8.23c8.09 0 14.69-6.6 14.69-14.69v-23.97c0-8.09-6.6-14.69-14.69-14.69h-8.23c-13.43 0-12.93-3.79-14.05-9.08-1.26-5.95-3.1-11.71-4.82-17.45-1.25-4.19-1.5-7.13 8.37-12.88l7.15-4.16c6.99-4.06 9.38-13.1 5.32-20.09l-12.05-20.72c-4.06-6.99-13.1-9.38-20.09-5.32l-7.22 4.19c-10.54 6.12-14.54 1.64-15.8.33-4.29-4.46-8.56-8.94-13.17-13.07-1.68-1.5-4.03-5.7 1.37-14.97l4.57-7.86c4.06-6.99 1.67-16.02-5.31-20.09l-20.72-12.05c-6.98-4.06-16.02-1.68-20.09 5.31l-4.56 7.85c-5.48 9.41-10.87 9.04-13.15 8.32-6.61-2.1-12.71-3.46-19.53-5.24-2.49-.64-6.76-2.46-6.76-13.68v-8.41c0-8.09-6.59-14.69-14.69-14.69h-23.97c-8.09 0-14.69 6.6-14.69 14.69v8.41c0 11.22-4.27 13.03-6.76 13.68-6.82 1.78-12.92 3.14-19.53 5.24-2.28.73-7.66 1.1-13.14-8.32l-4.56-7.85C1329.5 832.37 1320.46 829.98 1313.48 834.04L1313.48 834.04zM1404.23 919.87c51.94 0 94.05 42.11 94.05 94.05 0 51.94-42.11 94.05-94.05 94.05-51.94 0-94.05-42.11-94.05-94.05C1310.18 961.98 1352.29 919.87 1404.23 919.87L1404.23 919.87zM1404.23 896.37c64.92 0 117.55 52.63 117.55 117.56 0 64.92-52.63 117.55-117.55 117.55s-117.56-52.63-117.56-117.55C1286.68 949 1339.31 896.37 1404.23 896.37zM1058.57 575.34l-15.11 8.79c-5.1 2.96-6.84 9.55-3.88 14.65l3.34 5.74c3.94 6.77 2.22 9.83 1 10.92-3.36 3.01-6.48 6.28-9.61 9.53-.92.96-3.84 4.22-11.52-.24l-5.27-3.06c-5.1-2.96-11.69-1.22-14.65 3.88l-8.79 15.11c-2.96 5.1-1.22 11.69 3.88 14.65l5.22 3.03c7.2 4.19 7.02 6.34 6.11 9.4-1.25 4.19-2.6 8.39-3.52 12.73-.81 3.86-.45 6.63-10.25 6.63h-6.01c-5.9 0-10.72 4.81-10.72 10.72v17.49c0 5.9 4.81 10.72 10.72 10.72h6.01c9.8 0 9.44 2.76 10.25 6.63.92 4.34 2.26 8.54 3.52 12.73.91 3.06 1.1 5.21-6.11 9.39l-5.22 3.03c-5.1 2.96-6.84 9.56-3.88 14.65l8.79 15.12c2.96 5.1 9.55 6.84 14.65 3.88l5.27-3.06c7.69-4.47 10.6-1.2 11.52-.24 3.13 3.26 6.25 6.53 9.61 9.54 1.22 1.09 2.94 4.16-1 10.92l-3.34 5.74c-2.96 5.1-1.22 11.69 3.88 14.65l15.11 8.79c5.1 2.96 11.69 1.22 14.65-3.88l3.33-5.72c4-6.87 7.93-6.6 9.59-6.07 4.82 1.54 9.27 2.53 14.25 3.82 1.82.47 4.93 1.79 4.93 9.98v6.13c0 5.9 4.81 10.72 10.71 10.72h17.49c5.9 0 10.71-4.81 10.71-10.72v-6.13c0-8.18 3.12-9.51 4.93-9.98 4.98-1.3 9.43-2.29 14.25-3.82 1.66-.53 5.59-.8 9.59 6.07l3.33 5.72c2.96 5.1 9.56 6.84 14.65 3.88l15.12-8.79c5.1-2.97 6.84-9.56 3.88-14.65l-3.34-5.74c-3.94-6.77-2.22-9.83-1-10.92 3.36-3.01 6.48-6.28 9.61-9.54.92-.96 3.84-4.22 11.52.24l5.27 3.06c5.1 2.97 11.69 1.22 14.65-3.88l8.79-15.12c2.96-5.1 1.22-11.69-3.88-14.65l-5.22-3.03c-7.21-4.19-7.02-6.34-6.11-9.39 1.25-4.19 2.6-8.39 3.52-12.73.81-3.87.45-6.63 10.25-6.63h6.01c5.9 0 10.72-4.81 10.72-10.72v-17.49c0-5.9-4.81-10.72-10.72-10.72h-6.01c-9.8 0-9.43-2.76-10.25-6.63-.92-4.34-2.26-8.54-3.52-12.73-.91-3.06-1.1-5.2 6.11-9.4l5.22-3.03c5.1-2.96 6.84-9.56 3.88-14.65l-8.79-15.11c-2.96-5.1-9.56-6.84-14.65-3.88l-5.27 3.06c-7.69 4.47-10.6 1.2-11.52.24-3.13-3.25-6.25-6.52-9.61-9.53-1.22-1.09-2.94-4.16 1-10.92l3.34-5.74c2.96-5.1 1.22-11.69-3.88-14.65l-15.12-8.79c-5.09-2.96-11.69-1.22-14.65 3.88l-3.33 5.72c-4 6.87-7.93 6.6-9.59 6.07-4.82-1.53-9.27-2.52-14.25-3.82-1.81-.47-4.93-1.79-4.93-9.98v-6.14c0-5.91-4.81-10.72-10.71-10.72h-17.49c-5.9 0-10.71 4.81-10.71 10.72v6.14c0 8.18-3.11 9.5-4.93 9.98-4.98 1.3-9.43 2.29-14.25 3.82-1.66.53-5.59.8-9.59-6.07l-3.33-5.72C1070.26 574.12 1063.67 572.38 1058.57 575.34L1058.57 575.34zM1124.77 637.95c37.89 0 68.61 30.72 68.61 68.61 0 37.89-30.72 68.61-68.61 68.61-37.89 0-68.61-30.72-68.61-68.61C1056.16 668.67 1086.88 637.95 1124.77 637.95L1124.77 637.95zM1124.77 620.81c47.36 0 85.75 38.39 85.75 85.76 0 47.36-38.39 85.75-85.75 85.75-47.36 0-85.76-38.39-85.76-85.75C1039.02 659.2 1077.41 620.81 1124.77 620.81z" clip-rule="evenodd" class="color5a53a2 svgShape"></path><path fill="#c2b5d9" fill-rule="evenodd" d="M1404.23 896.37c-64.92 0-117.55 52.63-117.55 117.56s52.63 117.55 117.55 117.55c64.92 0 117.56-52.63 117.56-117.55S1469.16 896.37 1404.23 896.37L1404.23 896.37zM1310.18 1013.93c0-51.94 42.11-94.05 94.05-94.05 51.94 0 94.06 42.11 94.06 94.05 0 51.94-42.11 94.05-94.06 94.05C1352.29 1107.98 1310.18 1065.87 1310.18 1013.93zM1124.77 620.81c-47.36 0-85.76 38.4-85.76 85.76 0 47.36 38.39 85.76 85.76 85.76 47.36 0 85.76-38.4 85.76-85.76C1210.53 659.2 1172.14 620.81 1124.77 620.81L1124.77 620.81zM1056.16 706.56c0-37.89 30.72-68.61 68.61-68.61 37.89 0 68.61 30.72 68.61 68.61 0 37.89-30.72 68.61-68.61 68.61C1086.88 775.18 1056.16 744.46 1056.16 706.56z" clip-rule="evenodd" class="colorc2b5d9 svgShape"></path></svg></g></svg>