<svg id="SvgjsSvg1532" width="550" height="550" xmlns="http://www.w3.org/2000/svg" version="1.1"
    xmlns:xlink="http://www.w3.org/1999/xlink" xmlns:svgjs="http://svgjs.com/svgjs">
    <defs id="SvgjsDefs1533"></defs>
    <g id="SvgjsG1534">
        <svg xmlns="http://www.w3.org/2000/svg" viewBox="0 0 4680 3120" width="550"
            height="550">
            <g data-name="8" fill="#000000" class="color000 svgShape">
                <rect width="4680" height="3120" fill="#ffffff" data-name="8" opacity="0"
                    class="colorfff svgShape"></rect>
                <path fill="#e9d9ca"
                    d="M3415.2,1884.91c-290.67-102.29,496.47,35.59,363.52-852.47-87-581.05-930.94-841.45-1317.2-556.24-170.86,126.16-387.88,233.39-781.75,71.53C1157.45,333.09,752.4,1036.41,947.6,1479.44s19.91,368.6-126.44,652.49c-57.93,112.38-80,220.39-42.1,343.43,34.28,111.28,208.25,223.35,304.35,223.53l2392.08,27.61c121.68.22,202.63-17.43,284.49-129.32C3923.29,2373.94,3757.38,2005.33,3415.2,1884.91Z"
                    class="colore9d9ca svgShape"></path>
                <path fill="#448786"
                    d="M1120,2653.1c-6.47-6.25-12.72-12.66-18.65-19.25-19.87-22.06-36.12-46.08-44.76-72.48-10.17-31.09-28.34-56.18-51.18-76.62q-3.87-3.45-7.9-6.73c-19.52-15.88-41.91-28.74-65.36-39.32-23.85-10.77-48.78-19.17-72.87-26-78.94-22.37-101.62-121.59-179.23-142.4-6.86-1.84-14.27-2.81-21-.48s-11.85,7.55-15.83,13.34c-14.18,20.61-14.46,48.68-5,71.85,14.15,34.7,36.64,58.15,63.47,76.2,31.78,21.38,56.17,21.48,90.42,30.52,38.28,10.09,75.52,37.33,102.4,65.59,29.54,31.06,51,69.2,81.31,99.5,2.41,2.4,4.87,4.76,7.36,7,19.32,17.73,41.09,31.93,64.41,43.67H1147c-9.23-7.87-18.32-16-27-24.41C1120,2653.11,1120,2653.11,1120,2653.1Z"
                    class="color448786 svgShape"></path>
                <path fill="#007f84"
                    d="M1069.74,2633.85a293.8,293.8,0,0,1-31.06-24.61c-19.44-17.79-36.32-38.95-52.65-59.42-9.58-12-19.31-24.21-29.67-35.88h0c-12.46-14-25.83-27.28-41-38.52-26-19.35-56.45-32.1-85.87-44.43s-59.87-25.09-85.48-44.39c-19.88-15-38-34.6-55.39-60a3.22,3.22,0,0,0-4.47-.84,3.18,3.18,0,0,0-.84,4.47c17.8,25.95,36.38,46.05,56.83,61.46,26.25,19.78,57.07,32.7,86.87,45.18,29.05,12.18,59.1,24.77,84.51,43.65,20.46,15.22,37.79,34.41,54.06,54.18,5.21,6.34,10.31,12.73,15.38,19.08,16.48,20.67,33.52,42,53.33,60.17a287.58,287.58,0,0,0,24.33,19.86c22.93,16.84,47.94,30.65,72.93,43.67h14q-6.94-3.58-13.93-7.23C1110.5,2659.21,1089.41,2647.51,1069.74,2633.85Z"
                    class="color007f84 svgShape"></path>
                <path fill="#449e9d"
                    d="M1167.18,2659q-9.51-12.35-18.36-25.11-1.33-1.92-2.64-3.84a490.88,490.88,0,0,1-41.64-73.34.09.09,0,0,1,0-.05c-15.26-33.62-26-69-30.64-106.13-5.75-46.2-1.66-93.16-6.8-139.44-7.53-67.61-34.71-131.12-69.45-189-17.92-29.85-40.07-70.16-70.3-95.62-17.72-14.92-38.21-24.75-62.26-24.37-28.59.45-52.65,25.53-59,53.42s2,57.27,15.2,82.63,31.2,47.9,46.22,72.23c39.83,64.48,47.06,133.78,60.05,206.4,1.27,7.08,2.78,14.43,4.54,22a489.52,489.52,0,0,0,24.24,75.23h0q4.33,10.48,9.27,20.8c18.91,39.59,44,76,75.05,99.11q5.38,4,11,7.44c19.14,11.71,37.77,23.9,56.43,36.23H1182q-7.54-9.15-14.77-18.54S1167.19,2659,1167.18,2659Z"
                    class="color449e9d svgShape"></path>
                <path fill="#009184"
                    d="M1123.07,2134.83c-10.7-3.43-22.91-4.75-32.78.63-11.8,6.43-17.17,21-16.77,34.44s5.48,26.23,9.87,38.93a416.24,416.24,0,0,1,21.39,168.92c-2.8,34.6-9.94,68.84-10.72,103.55a246.8,246.8,0,0,0,10.47,75.32.09.09,0,0,0,0,.05c7.9,26.79,19.84,52.68,34.49,77.18a446.33,446.33,0,0,0,29.84,43.67h27c-4.41-13.5-8.12-26.45-11.36-36.46q-1.18-3.67-2.37-7.21c-10.65-31.95-20.12-56.22-12.95-91.58,8.07-39.8,25.08-77.21,35.67-116.42a372.72,372.72,0,0,0,6.12-167.16C1200.85,2206.47,1173.72,2151,1123.07,2134.83Z"
                    class="color009184 svgShape"></path>
                <path fill="#007f84"
                    d="M1120 2653.11s0 0 0 0c-7.76-6.13-15.44-12.49-22.66-19.25l-.64-.59c-48.11-45.38-79.67-96.72-91.29-148.51 0-.09 0-.18-.06-.26-4.78-21.38-5.05-43.5-5.33-64.89-.23-18.49-.48-37.61-3.6-56.3-5.88-35.19-19.56-71.83-39.58-106-5.64-9.61-11.65-19.19-17.47-28.44-11.9-18.93-24.21-38.5-33.66-59-19-41.37-36.21-86.23-33.07-133.92a3.22 3.22 0 00-6.42-.41c-3.23 49.1 14.26 94.87 33.66 137 9.62 20.93 22 40.68 34 59.78 5.8 9.22 11.79 18.75 17.37 28.27 19.63 33.45 33 69.33 38.79 103.76 3 18.2 3.28 37.08 3.51 55.32.25 19.14.5 38.85 3.92 58.34.46 2.62 1 5.26 1.56 7.87 11.51 51.57 42.22 102.63 89 148q2.12 2.05 4.27 4.09c12 11.27 25.09 21.36 37.79 31.12l1.6 1.23c3.09 2.38 6.22 4.79 9.33 7.23h10.37c-5.78-4.64-11.63-9.14-17.38-13.55C1129.33 2660.4 1124.64 2656.79 1120 2653.11zM1167.18 2659a232.71 232.71 0 01-12.49-25.11 204.06 204.06 0 01-14.07-49c-7-46.31 3-93.54 12.67-139.21 5.79-27.28 11.77-55.49 14.2-83.54 5.61-64.79-8.18-133-38.84-192.07a3.22 3.22 0 00-5.71 3c30.11 58 43.65 124.95 38.15 188.56-2.4 27.65-8.34 55.67-14.09 82.76-9.81 46.24-20 94-12.74 141.51a208.85 208.85 0 0011.92 44.18c.5 1.28 1 2.56 1.54 3.84a245.4 245.4 0 0023.45 43.67H1179q-6.35-9.12-11.75-18.54S1167.19 2659 1167.18 2659z"
                    class="color007f84 svgShape"></path>
                <path fill="#448786"
                    d="M4010.88,2108.7c-9.21-3.18-19.37-1.87-28.77.65-106.31,28.51-137.37,164.43-245.5,195.07-33,9.35-67.15,20.86-99.82,35.62-32.11,14.49-62.79,32.1-89.53,53.85q-5.52,4.5-10.81,9.22c-31.29,28-56.19,62.37-70.12,104.95-11.83,36.17-34.09,69.07-61.31,99.29-8.12,9-16.68,17.81-25.54,26.37,0,0,0,0,0,0-11.94,11.54-24.39,22.66-37,33.43h136.24c31.94-16.07,61.76-35.52,88.22-59.81,3.42-3.11,6.78-6.34,10.08-9.63,41.54-41.5,70.92-93.75,111.38-136.3,36.82-38.7,87.84-76,140.27-89.84,46.91-12.38,80.32-12.52,123.86-41.81,36.74-24.72,67.56-56.84,86.94-104.38,12.94-31.74,12.56-70.18-6.87-98.42C4027.12,2119.05,4020,2111.85,4010.88,2108.7Z"
                    class="color448786 svgShape"></path>
                <path fill="#007f84"
                    d="M3976.4,2185.39a4.4,4.4,0,0,0-6.13,1.14c-23.82,34.74-48.64,61.6-75.87,82.12-35.09,26.44-76.78,43.92-117.1,60.81s-82,34.35-117.61,60.86c-20.71,15.4-39,33.56-56.1,52.77h0c-14.19,16-27.52,32.68-40.65,49.14-22.37,28-45.49,57-72.11,81.4a403.09,403.09,0,0,1-42.55,33.71c-27,18.71-55.84,34.74-84.8,49.92q-9.55,5-19.09,9.89h19.16c34.23-17.83,68.49-36.75,99.9-59.81a394.31,394.31,0,0,0,33.32-27.21c27.13-24.83,50.48-54.11,73.05-82.41,6.94-8.7,13.93-17.46,21.08-26.15,22.27-27.08,46-53.36,74-74.2,34.8-25.87,76-43.11,115.77-59.79,40.82-17.11,83-34.81,119-61.9,28-21.11,53.47-48.64,77.85-84.18A4.35,4.35,0,0,0,3976.4,2185.39Z"
                    class="color007f84 svgShape"></path>
                <path fill="#449e9d"
                    d="M3728.62,1741.89c-32.94-.52-61,12.94-85.28,33.38-41.41,34.87-71.75,90.08-96.3,131-47.59,79.32-84.81,166.32-95.12,258.93-7.06,63.39-1.45,127.72-9.33,191-6.32,50.87-21.06,99.32-42,145.39,0,0,0,0,0,.06a671.31,671.31,0,0,1-57,100.46c-1.19,1.75-2.39,3.51-3.61,5.26q-12.11,17.46-25.16,34.4s0,0,0,0q-9.86,12.86-20.24,25.39h101.2c25.55-16.88,51.07-33.58,77.29-49.63q7.68-4.7,15-10.18c42.56-31.61,76.91-81.54,102.82-135.77,4.48-9.39,8.72-18.91,12.69-28.48h0a670.67,670.67,0,0,0,33.2-103.05c2.41-10.36,4.49-20.43,6.22-30.13,17.79-99.47,27.7-194.4,82.25-282.73,20.58-33.32,45.22-64.19,63.32-98.93s29.46-75,20.81-113.19S3767.79,1742.5,3728.62,1741.89Z"
                    class="color449e9d svgShape"></path>
                <path fill="#009184"
                    d="M3420.13,1924.65c-13.52-7.36-30.24-5.55-44.9-.86-69.38,22.21-106.55,98.14-120.35,169.67a510.62,510.62,0,0,0,8.38,229c14.51,53.71,37.8,105,48.86,159.47,9.83,48.44-3.14,81.69-17.74,125.45-1.07,3.23-2.16,6.52-3.24,9.87-4.44,13.72-9.52,31.45-15.57,49.94h36.92a607.1,607.1,0,0,0,40.88-59.81c20.06-33.57,36.42-69,47.24-105.72,0,0,0,0,0-.06,9.86-33.52,15.12-68.07,14.33-103.19-1.06-47.54-10.83-94.44-14.67-141.83a569.92,569.92,0,0,1,29.3-231.38c6-17.41,12.95-34.93,13.51-53.34S3436.3,1933.46,3420.13,1924.65Z"
                    class="color009184 svgShape"></path>
                <path fill="#007f84"
                    d="M3722.41 1783.68a4.41 4.41 0 00-4.1 4.68c4.3 65.31-19.23 126.76-45.3 183.43-13 28.13-29.81 54.94-46.11 80.88-8 12.67-16.21 25.79-23.93 38.95-27.42 46.74-46.16 96.92-54.21 145.13-4.28 25.61-4.62 51.79-4.94 77.12-.37 29.3-.75 59.6-7.29 88.88 0 .12-.05.24-.08.36-15.92 70.95-59.15 141.27-125.06 203.43l-.88.81c-9.88 9.26-20.41 18-31 26.37 0 0 0 0 0 0-6.39 5.05-12.82 10-19.17 14.87-7.87 6.05-15.9 12.21-23.81 18.56h14.2c4.27-3.33 8.55-6.64 12.79-9.89l2.19-1.69c17.39-13.37 35.38-27.19 51.76-42.64q3-2.78 5.85-5.59c64-62.09 106.08-132 121.84-202.67.81-3.59 1.51-7.19 2.14-10.79 4.68-26.69 5-53.69 5.37-79.91.32-25 .65-50.84 4.81-75.78 7.87-47.16 26.24-96.3 53.13-142.12 7.64-13 15.85-26.1 23.8-38.73 16.44-26.17 33.44-53.22 46.63-81.88 26.57-57.73 50.53-120.42 46.1-187.69A4.41 4.41 0 003722.41 1783.68zM3373.52 1970.14a4.4 4.4 0 00-5.93 1.88c-42 80.91-60.89 174.35-53.21 263.1 3.33 38.42 11.52 77.06 19.46 114.44 13.27 62.55 27 127.25 17.35 190.69a279.28 279.28 0 01-19.27 67.1 319.11 319.11 0 01-17.12 34.4s0 0 0 0q-7.4 12.9-16.09 25.39h10.66a336.46 336.46 0 0032.11-59.81c.72-1.75 1.43-3.51 2.11-5.26a285.44 285.44 0 0016.33-60.52c9.89-65-4-130.5-17.45-193.84-7.87-37.11-16-75.48-19.3-113.37-7.53-87.12 11-178.83 52.26-258.28A4.43 4.43 0 003373.52 1970.14z"
                    class="color007f84 svgShape"></path>
                <ellipse cx="2351.46" cy="2687.98" fill="#cfa09a" rx="1347.45" ry="72.02"
                    class="colorcfa09a svgShape"></ellipse>
                <path fill="#5863d2"
                    d="M2191.71,811.11H1985.06a12.21,12.21,0,0,1-12.21-12.21V733.06A23.81,23.81,0,0,0,1949,709.24H1625.2a23.81,23.81,0,0,0-23.82,23.82V798.9a12.22,12.22,0,0,1-12.22,12.21h-83.33a12.21,12.21,0,0,1-12.21-12.21V733.06a23.82,23.82,0,0,0-23.82-23.82H1014.06a23.81,23.81,0,0,0-23.82,23.82v65.85a12.2,12.2,0,0,1-12.2,12.2H802a45.1,45.1,0,0,0-45.1,45.1v987.34a45.1,45.1,0,0,0,45.1,45.09H2191.71a45.1,45.1,0,0,0,45.1-45.09V856.21A45.1,45.1,0,0,0,2191.71,811.11Z"
                    class="color5863d2 svgShape"></path>
                <rect width="317.95" height="31.19" x="1628.38" y="822.1" fill="#1d2289"
                    class="color1d2289 svgShape"></rect>
                <rect width="445.97" height="31.19" x="1020.46" y="822.1" fill="#1d2289"
                    class="color1d2289 svgShape"></rect>
                <rect width="11.7" height="74.79" x="1934.63" y="729.76" fill="#1d2289"
                    class="color1d2289 svgShape"></rect>
                <rect width="11.7" height="74.79" x="1909.11" y="729.76" fill="#1d2289"
                    class="color1d2289 svgShape"></rect>
                <rect width="11.7" height="74.79" x="1883.59" y="729.76" fill="#1d2289"
                    class="color1d2289 svgShape"></rect>
                <rect width="11.7" height="74.79" x="1858.07" y="729.76" fill="#1d2289"
                    class="color1d2289 svgShape"></rect>
                <rect width="11.7" height="74.79" x="1832.55" y="729.76" fill="#1d2289"
                    class="color1d2289 svgShape"></rect>
                <rect width="11.7" height="74.79" x="1807.02" y="729.76" fill="#1d2289"
                    class="color1d2289 svgShape"></rect>
                <rect width="11.7" height="74.79" x="1781.5" y="729.76" fill="#1d2289"
                    class="color1d2289 svgShape"></rect>
                <rect width="11.7" height="74.79" x="1755.98" y="729.76" fill="#1d2289"
                    class="color1d2289 svgShape"></rect>
                <rect width="11.7" height="74.79" x="1730.46" y="729.76" fill="#1d2289"
                    class="color1d2289 svgShape"></rect>
                <rect width="11.7" height="74.79" x="1704.94" y="729.76" fill="#1d2289"
                    class="color1d2289 svgShape"></rect>
                <rect width="11.7" height="74.79" x="1679.42" y="729.76" fill="#1d2289"
                    class="color1d2289 svgShape"></rect>
                <rect width="11.7" height="74.79" x="1653.9" y="729.76" fill="#1d2289"
                    class="color1d2289 svgShape"></rect>
                <rect width="11.7" height="74.79" x="1628.38" y="729.76" fill="#1d2289"
                    class="color1d2289 svgShape"></rect>
                <g style="isolation:isolate" fill="#000000" class="color000 svgShape">
                    <rect width="16.41" height="74.79" x="1450.03" y="729.76" fill="#1d2289"
                        class="color1d2289 svgShape"></rect>
                    <rect width="16.41" height="74.79" x="1414.23" y="729.76" fill="#1d2289"
                        class="color1d2289 svgShape"></rect>
                    <rect width="16.41" height="74.79" x="1378.43" y="729.76" fill="#1d2289"
                        class="color1d2289 svgShape"></rect>
                    <rect width="16.41" height="74.79" x="1342.64" y="729.76" fill="#1d2289"
                        class="color1d2289 svgShape"></rect>
                    <rect width="16.41" height="74.79" x="1306.84" y="729.76" fill="#1d2289"
                        class="color1d2289 svgShape"></rect>
                    <rect width="16.41" height="74.79" x="1271.04" y="729.76" fill="#1d2289"
                        class="color1d2289 svgShape"></rect>
                    <rect width="16.41" height="74.79" x="1235.24" y="729.76" fill="#1d2289"
                        class="color1d2289 svgShape"></rect>
                    <rect width="16.41" height="74.79" x="1199.45" y="729.76" fill="#1d2289"
                        class="color1d2289 svgShape"></rect>
                    <rect width="16.41" height="74.79" x="1163.65" y="729.76" fill="#1d2289"
                        class="color1d2289 svgShape"></rect>
                    <rect width="16.41" height="74.79" x="1127.85" y="729.76" fill="#1d2289"
                        class="color1d2289 svgShape"></rect>
                    <rect width="16.41" height="74.79" x="1092.06" y="729.76" fill="#1d2289"
                        class="color1d2289 svgShape"></rect>
                    <rect width="16.41" height="74.79" x="1056.26" y="729.76" fill="#1d2289"
                        class="color1d2289 svgShape"></rect>
                    <rect width="16.41" height="74.79" x="1020.46" y="729.76" fill="#1d2289"
                        class="color1d2289 svgShape"></rect>
                </g>
                <path fill="#f9692e"
                    d="M3546.59,1131l-19-59.1,42.63-45.83a309.58,309.58,0,0,0-42.29-58.37l-56.78,26.22L3421,957.38l7.5-62.15a314.36,314.36,0,0,0-35.09-13.72,336.84,336.84,0,0,0-33.41-8.63l-30.48,54.69-62-.05L3237,872.75a316,316,0,0,0-68.77,22.33l7.52,62.18-50.16,36.51-56.87-26.38a313.16,313.16,0,0,0-42.41,58.36l42.77,45.89-19.17,59-61.52,12.06a314,314,0,0,0,.14,72.19l61.49,12,19.28,59-42.5,45.94a310.8,310.8,0,0,0,42.46,58.3l56.7-26.53,50.36,36.38-7.42,62.22a316.45,316.45,0,0,0,34.22,13.2,295.35,295.35,0,0,0,34.46,8.83l30.32-54.73,62-.15,30.65,54.54a311.39,311.39,0,0,0,68.52-22.44l-7.73-62.13,50.06-36.66,56.95,26.14a308.51,308.51,0,0,0,41.11-56.64l-42.58-46,19.41-59,61.56-11.94a310.5,310.5,0,0,0,.14-72.16Zm-196.42,177.29a139.8,139.8,0,1,1-103.58-259.7c71.79-28.39,153,6.46,181.42,78.21A139.42,139.42,0,0,1,3350.17,1308.27Z"
                    class="colorf9692e svgShape"></path>
                <path fill="#ff742e"
                    d="M3222.52,988.49c-104.89,41.79-156.07,160.83-114.27,265.69s160.83,156.1,265.71,114.28,156.23-160.88,114.45-265.82S3327.62,946.57,3222.52,988.49Zm144,361.35c-94.6,37.72-202-8.43-239.67-103.08s8.47-202,103.07-239.65a184.52,184.52,0,0,1,239.83,103C3507.47,1204.72,3461.18,1312.15,3366.55,1349.84Z"
                    class="colorff742e svgShape"></path>
                <path fill="#ff742e"
                    d="M3126.88,1246.76a183.65,183.65,0,0,1-2.65-129.3q-1.24-22.73-1.11-44.55a204.53,204.53,0,0,0,51.72,268.7q-8.93-21.24-16.08-42.4A183.87,183.87,0,0,1,3126.88,1246.76Z"
                    class="colorff742e svgShape"></path>
                <path fill="#ffa900"
                    d="M3540.66,1106.39l-19-59.1,42.62-45.84A309.78,309.78,0,0,0,3522,943.08l-56.77,26.23-50.13-36.52,7.5-62.15a313.6,313.6,0,0,0-35.09-13.72,334.62,334.62,0,0,0-33.4-8.63L3323.59,903l-62-.05-30.45-54.77a315.39,315.39,0,0,0-68.76,22.33l7.52,62.18-50.17,36.51-56.87-26.38a312.34,312.34,0,0,0-42.4,58.36l42.76,45.88-19.17,59-61.51,12.06a313.4,313.4,0,0,0,.13,72.19l61.49,12,19.28,59-42.49,45.94a310.3,310.3,0,0,0,42.46,58.31l56.69-26.53,50.36,36.37-7.42,62.23a317.42,317.42,0,0,0,34.23,13.2,294.79,294.79,0,0,0,34.46,8.82l30.31-54.73,62-.15,30.64,54.55a311,311,0,0,0,68.52-22.44l-7.72-62.14,50.05-36.65,56.95,26.13a309,309,0,0,0,41.12-56.63l-42.59-46,19.42-58.95L3602,1190.7a310.5,310.5,0,0,0,.14-72.16Zm-196.42,177.29A139.8,139.8,0,1,1,3240.67,1024c71.79-28.4,153,6.46,181.41,78.2A139.43,139.43,0,0,1,3344.24,1283.68Z"
                    class="colorffa900 svgShape"></path>
                <path fill="#f9692e"
                    d="M3216.59,963.9c-104.88,41.78-156.07,160.83-114.27,265.69s160.84,156.1,265.71,114.28,156.23-160.88,114.45-265.82S3321.69,922,3216.59,963.9Zm144,361.35c-94.6,37.72-202-8.43-239.67-103.08s8.47-202,103.07-239.65a184.54,184.54,0,0,1,239.84,103C3501.54,1180.13,3455.25,1287.55,3360.62,1325.25Z"
                    class="colorf9692e svgShape"></path>
                <rect width="239.97" height="155.4" x="2321.45" y="903.75" fill="#ea5052" rx="30.66"
                    class="colorea5052 svgShape"></rect>
                <polygon fill="#ea5052"
                    points="2489.95 1107.8 2489.95 1044.13 2427.06 1046.4 2489.95 1107.8"
                    class="colorea5052 svgShape"></polygon>
                <circle cx="2384.54" cy="977.28" r="13.5" fill="#ffffff" class="colorfff svgShape">
                </circle>
                <path fill="#ffffff"
                    d="M2441.43,963.78a13.5,13.5,0,1,0,13.5,13.5A13.49,13.49,0,0,0,2441.43,963.78Z"
                    class="colorfff svgShape"></path>
                <circle cx="2498.33" cy="977.28" r="13.5" fill="#ffffff" class="colorfff svgShape">
                </circle>
                <polygon fill="#4c1616"
                    points="2415.86 2076.37 2340 2701.82 2356.82 2701.82 2461.13 2076.37 2476.53 1973.85 2427.07 1973.85 2415.86 2076.37"
                    class="color4c1616 svgShape"></polygon>
                <polygon fill="#2e0000"
                    points="2415.86 2076.37 2461.13 2076.37 2476.53 1973.85 2427.07 1973.85 2415.86 2076.37"
                    class="color2e0000 svgShape"></polygon>
                <polygon fill="#4c1616"
                    points="2717.06 1973.85 2667.59 1973.85 2682.99 2076.37 2787.31 2684.2 2804.12 2684.2 2728.27 2076.37 2717.06 1973.85"
                    class="color4c1616 svgShape"></polygon>
                <polygon fill="#2e0000"
                    points="2667.59 1973.85 2682.99 2076.37 2728.27 2076.37 2717.06 1973.85 2667.59 1973.85"
                    class="color2e0000 svgShape"></polygon>
                <polygon fill="#4c1616"
                    points="3029.96 1973.85 2980.49 1973.85 2995.89 2076.37 3100.21 2684.2 3117.02 2684.2 3041.17 2076.37 3029.96 1973.85"
                    class="color4c1616 svgShape"></polygon>
                <polygon fill="#2e0000"
                    points="2980.49 1970.76 2995.89 2073.28 3041.17 2073.28 3029.96 1970.76 2980.49 1970.76"
                    class="color2e0000 svgShape"></polygon>
                <polygon fill="#571e1e"
                    points="2708.28 1179.18 2612.1 1932.6 2325.95 1932.6 2325.95 2022.02 3090.35 2022.02 3061.21 1179.18 2708.28 1179.18"
                    class="color571e1e svgShape"></polygon>
                <polygon fill="#773131"
                    points="2325.95 1932.61 2325.95 2022.02 3048.69 2022.02 3045.82 1932.61 2325.95 1932.61"
                    class="color773131 svgShape"></polygon>
                <polygon fill="#773131"
                    points="3021.53 1179.18 3048.69 2022.02 3090.35 2022.02 3061.21 1179.18 3021.53 1179.18"
                    class="color773131 svgShape"></polygon>
                <path fill="#fbc5a9"
                    d="M2390.9,2371.69c-34.11,1.08-47.84,17.83-92.64,20.93l6.16,197.58s-113.6,59.23-117.09,62c-12,9.6-24.36,32-13.51,35.57s221.63,5.26,233.43-2.23c1.41-.84,7.44-24.65,7.54-64v-.75C2414.86,2611.53,2398.3,2412.28,2390.9,2371.69Z"
                    class="colorfbc5a9 svgShape"></path>
                <path fill="#fdbb05"
                    d="M2303.19,2583.38s-113.23,56.12-125.58,66-21.94,41.9-10.81,45.56,243,3.82,255.06-3.91c4.6-2.9-.24-52.36-4.89-106.56Z"
                    class="colorfdbb05 svgShape"></path>
                <path fill="#ffffff"
                    d="M2397 2683.14c-52.8-2.47-172.43-2.52-225.72-.93-1.13 0-1.12.84 0 .87 53.31 1.34 172.93 3.13 225.73.4C2397.45 2683.46 2397.44 2683.16 2397 2683.14zM2198 2637.85a.34.34 0 000 .67c21.15 1.51 40.22 19.73 43.38 40.57 0 .33.63.32.64 0 .32-11.05-5.4-21.19-12.06-28.39C2223 2643.21 2210.64 2637.27 2198 2637.85zM2236.56 2528c-10.17 8.52-4.9 22.62 1.87 31.26 11.59 14.8 29.18 24 44.42 34.48 1.59 1.08 3.38-.21 3.83-1.74a.57.57 0 00.67-.62c-1.29-18.38-8.81-39.45-19.68-54.45C2261 2527.67 2247.31 2519 2236.56 2528zm48.55 61c-7.17-5.58-14.76-10.49-22.14-15.8-8.78-6.33-26.73-18.81-25.62-31.62 2-23.22 23-5.5 27.7 1.52a119.67 119.67 0 017.87 14.35C2277.86 2567.68 2281.24 2578.4 2285.11 2589z"
                    class="colorfff svgShape"></path>
                <path fill="#ffffff"
                    d="M2334.08,2562.8c-18.17,3.6-38,13.92-51.48,26.51a.56.56,0,0,0,.07.9c-.71,1.43-.27,3.6,1.62,3.89,18.27,2.73,37.46,7.92,56,5,10.83-1.73,24.29-8.47,22.64-21.64C2361.21,2563.51,2345.3,2560.58,2334.08,2562.8Zm19,24.06c-7.9,10.13-29.54,7.06-40.29,5.72-9-1.13-17.92-2.69-27-3.48,10.06-5.15,19.84-10.7,30.41-14.83a119.21,119.21,0,0,1,15.53-5.15C2340,2567.15,2367.46,2568.48,2353.12,2586.86Z"
                    class="colorfff svgShape"></path>
                <path fill="#ffffff"
                    d="M2259.92 2584.81a1.34 1.34 0 00-.36 2.63 294.58 294.58 0 0158.73 22.81c.64.33 1.6-.4 1.08-1.07C2306 2591.8 2281.25 2584.4 2259.92 2584.81zM2243.48 2591.31a1.34 1.34 0 00-.35 2.63 295.45 295.45 0 0158.73 22.82c.63.32 1.6-.4 1.08-1.07C2289.59 2598.31 2264.81 2590.91 2243.48 2591.31zM2227 2597.82a1.34 1.34 0 00-.35 2.63 295.22 295.22 0 0158.73 22.82c.63.32 1.6-.4 1.08-1.08C2273.15 2604.81 2248.38 2597.41 2227 2597.82zM2210.61 2604.33a1.34 1.34 0 00-.36 2.63 294.61 294.61 0 0158.73 22.82c.64.32 1.6-.41 1.09-1.08C2256.72 2611.32 2231.94 2603.92 2210.61 2604.33z"
                    class="colorfff svgShape"></path>
                <path fill="#fbc5a9"
                    d="M2756.58,2368.79c-34.11.9-47.93,17.58-92.75,20.44l5.13,197.61s-113.91,58.63-117.42,61.38c-12,9.54-24.52,31.91-13.69,35.5s221.59,6.43,233.43-1c1.42-.83,7.58-24.61,7.88-63.95V2618C2779.29,2608.75,2763.77,2409.41,2756.58,2368.79Z"
                    class="colorfbc5a9 svgShape"></path>
                <path fill="#fdbb05"
                    d="M2667.76,2580s-113.52,55.52-125.92,65.35-22.16,41.78-11.05,45.5,242.95,5.09,255.08-2.57c4.61-2.88,0-52.37-4.33-106.58Z"
                    class="colorfdbb05 svgShape"></path>
                <path fill="#ffffff"
                    d="M2761.06 2680.27c-52.79-2.76-172.41-3.43-225.71-2.12-1.13 0-1.13.84 0 .87 53.3 1.62 172.92 4 225.72 1.58C2761.49 2680.59 2761.49 2680.29 2761.06 2680.27zM2562.29 2633.93a.34.34 0 000 .67c21.14 1.62 40.11 19.94 43.16 40.8.05.33.63.32.64 0 .38-11.06-5.29-21.23-11.91-28.46C2587.29 2639.42 2574.93 2633.41 2562.29 2633.93zM2698.76 2559.6c-18.19 3.5-38.09 13.72-51.61 26.24a.56.56 0 00.06.9c-.72 1.42-.29 3.6 1.6 3.89 18.25 2.83 37.41 8.12 56 5.27 10.84-1.67 24.34-8.34 22.76-21.52C2725.88 2560.45 2710 2557.44 2698.76 2559.6zm18.92 24.15c-8 10.09-29.58 6.91-40.32 5.51-9-1.17-17.91-2.78-27-3.62 10.08-5.09 19.89-10.59 30.48-14.66a119.8 119.8 0 0115.56-5.08C2704.65 2564 2732.12 2565.45 2717.68 2583.75z"
                    class="colorfff svgShape"></path>
                <path fill="#ffffff"
                    d="M2624.48 2581.21a1.34 1.34 0 00-.36 2.63 295 295 0 0158.61 23.13c.63.32 1.6-.4 1.08-1.07C2670.56 2588.45 2645.82 2580.92 2624.48 2581.21zM2608 2587.64a1.34 1.34 0 00-.36 2.62 295.58 295.58 0 0158.61 23.13c.63.32 1.6-.4 1.08-1.07C2654.08 2594.87 2629.35 2587.34 2608 2587.64zM2591.54 2594.06a1.34 1.34 0 00-.36 2.62 295.26 295.26 0 0158.6 23.13c.64.33 1.61-.39 1.09-1.07C2637.62 2601.29 2612.88 2593.76 2591.54 2594.06zM2575.07 2600.48a1.34 1.34 0 00-.36 2.62 295.26 295.26 0 0158.6 23.13c.64.33 1.61-.39 1.09-1.07C2621.14 2607.71 2596.41 2600.18 2575.07 2600.48z"
                    class="colorfff svgShape"></path>
                <path fill="#ffffff"
                    d="M2601.43,2524.28c-10.22,8.47-5,22.6,1.7,31.28,11.51,14.85,29.06,24.2,44.25,34.71,1.57,1.09,3.38-.19,3.83-1.72a.57.57,0,0,0,.67-.61c-1.19-18.39-8.6-39.5-19.39-54.56C2625.83,2524.08,2612.23,2515.33,2601.43,2524.28Zm48.23,61.27c-7.15-5.62-14.71-10.57-22.06-15.92-8.75-6.38-26.63-19-25.46-31.75,2.12-23.21,23.07-5.38,27.7,1.67a118.86,118.86,0,0,1,7.79,14.39C2642.51,2564.18,2645.85,2574.92,2649.66,2585.55Z"
                    class="colorfff svgShape"></path>
                <path fill="#3f4ebf"
                    d="M2590.55,1652a160.77,160.77,0,0,1-78,82.13c-49.1,23.79-121.87,57.7-178.08,78.1-93.51,33.94-98.11,157.67-98.11,157.67l29.08,546.5c49,14.13,116,7.7,163,0,33.07-5.43,56.22-11.5,56.22-11.5s-11.19-465.72-2-485.65,174.77-107.57,174.77-107.57C2754.09,1821.24,2769,1619,2769,1619H2604.48Z"
                    class="color3f4ebf svgShape"></path>
                <path fill="#1d2289"
                    d="M2418.79,1989.85c-11.05,33.5-3.61,364.54,9.72,526.55,33.07-5.43,56.22-11.5,56.22-11.5s-11.19-465.72-2-485.65,174.77-107.57,174.77-107.57c96.58-90.44,98.85-256,98.85-256l-13,55.47C2729.91,1758,2433.25,1946.07,2418.79,1989.85Z"
                    class="color1d2289 svgShape"></path>
                <path fill="#3f4ebf"
                    d="M2987.18,1619H2769c-29.21,60.44-100.5,148.4-151.84,221.14-36.13,51.2-33.52,136.7-33.52,163.31,0,43,37.61,536.82,37.61,536.82,84.12,13.57,223.25,1.39,223.25,1.39L2823.06,2045c28.75-76.25,205.85-137.51,180.58-307.89C2994.9,1678.2,2987.18,1619,2987.18,1619Z"
                    class="color3f4ebf svgShape"></path>
                <path fill="#1d2289"
                    d="M2792.36,2546.85c-.08-1.33-8.18-135.23-13.88-270.26-11.57-274.08-2.29-285.61.76-289.4,5.41-6.72,17.59-18,33-32.36,39.7-36.86,99.69-92.57,124.62-143,34.13-69-9.66-190.75-10.11-192l4.7-1.71a462,462,0,0,1,18.25,70.86c6.33,36.53,10,87.87-8.35,125-25.35,51.23-85.74,107.31-125.7,144.43-15.28,14.18-27.34,25.38-32.53,31.82-4.16,5.18-9.66,49.22.34,286,5.71,135,13.8,268.84,13.88,270.18Z"
                    class="color1d2289 svgShape"></path>
                <path
                    d="M2932.76,1715.62c-2.23-1.17-4.66-1.19-7.13-1.43q-4.44-.43-8.83-1.27a139.79,139.79,0,0,1-16.58-4.33,104.74,104.74,0,0,1-30.07-15.6,60.65,60.65,0,0,1-12.59-12.09,64.25,64.25,0,0,1-8.16-16c-2.17-5.84-4-11.86-5.59-17.88s-2.53-12.44-3.86-18.66a.62.62,0,0,0-1.21.13c-.27,11.63,1.92,23.84,4.9,35,2.48,9.35,6.19,18.14,12.57,25.53,6.16,7.13,14.43,12.87,22.62,17.42a101.72,101.72,0,0,0,26.75,10.35,96.3,96.3,0,0,0,14.05,2c4,.29,9.36,1.16,13.07-.81A1.43,1.43,0,0,0,2932.76,1715.62Z"
                    fill="#000000" class="color000 svgShape"></path>
                <path fill="#e84b4b"
                    d="M3061.08,1136.93h0c-68.29-24.65-107.24-20-146.48-15.26-16.23,2-26,4-26,4l-4.06.1-142.32,3.75s-8-.72-23.94-.5a697.89,697.89,0,0,0-72.11,5.24c-64,7.66-101.84,74.12-120.59,130.38-21.26,63.83-83.48,354.38-83.48,354.38h815.26c7.16-.45-27.1-.7-27.1-.7,25.16-12.58,30-59.07,30-59.07,15.13-108.25-14.08-215.17-100.3-347.45C3135.38,1174.06,3099.62,1150.84,3061.08,1136.93Zm-39.44,330.84,19.75-105.53L3072.5,1479Z"
                    class="colore84b4b svgShape"></path>
                <path fill="#e84b4b"
                    d="M3160,1211.8c-24.59-37.74-60.35-61-98.89-74.87h0c-22.75,8-38.59,25-44,42.83-11.82,39.16-4.43,74.62-4.43,74.62L3072.5,1479s-40.64-10.35-109.35-22.17-122.66,15.52-127.84,35.46-5.91,25.13-31,28.08-19.21,17-19.21,17,6.21,54.18,8.67,81.63h425.52l11-.7c25.16-12.58,30-59.07,30-59.07,7-49.81,4.54-99.34-8.51-151.18C3236.45,1347.24,3206.52,1283.21,3160,1211.8Z"
                    class="colore84b4b svgShape"></path>
                <path fill="#c62310"
                    d="M2978 1433.54c-59.4-21.91-153.82 5.42-162 42.69-5.79 26.19-56.18 27.87-30.88 61.15-.22-.55-5.4-14.09 19.22-17 25.12-3 25.86-8.13 31-28.08s59.12-47.28 127.83-35.46c22.71 3.9 42.35 7.65 58.48 10.91-.56-.3 19.77-105.52 19.77-105.52S3002.93 1442.74 2978 1433.54zM3251.76 1408.09c8.58 112-70.74 166.4-137.54 181.2S2793.74 1619 2793.74 1619h425.52l11-.7c25.16-12.58 30-59.07 30-59.07 7-49.81 4.54-99.34-8.51-151.18z"
                    class="colorc62310 svgShape"></path>
                <path fill="#c62310"
                    d="M3017.08,1179.76c-11.82,39.16-4.43,74.62-4.43,74.62L3072.5,1479l78,20.45s-42-51.08-68.74-112.28S3008.42,1232.75,3017.08,1179.76Z"
                    class="colorc62310 svgShape"></path>
                <rect width="44.04" height="2.95" x="2786.5" y="1547.67" fill="#ffffff"
                    transform="rotate(-3 2809.28 1549.604)" class="colorfff svgShape"></rect>
                <path fill="#ffffff"
                    d="M2789.47 1575.88l-.55-2.89c3.29-.62 39.94-2.81 41.5-2.9l.18 2.94C2820 1573.66 2792.05 1575.4 2789.47 1575.88zM2833.15 1597.56c-14.4-.72-38.29-1.38-41.05-.13l-1.22-2.69c4.23-1.91 36.08-.44 42.42-.13zM2884.54 1125.77l-142.32 3.75s-8-.72-23.94-.5c-1.89 15.17-2.14 52.52 36 73 45.64 24.51 153-3 160.3-80.38-16.23 2-26 4-26 4z"
                    class="colorfff svgShape"></path>
                <path fill="#c62310"
                    d="M2625,1258.89c-45.29,85.85-10.75,354.19-10.75,360.13h46.57C2616.69,1498.5,2625,1258.89,2625,1258.89Z"
                    class="colorc62310 svgShape"></path>
                <circle cx="2788.65" cy="1264.64" r="12.42" fill="#ffffff" class="colorfff svgShape">
                </circle>
                <path fill="#ffffff"
                    d="M2793.6,1314.78a12.42,12.42,0,1,0,12.42,12.41A12.41,12.41,0,0,0,2793.6,1314.78Z"
                    class="colorfff svgShape"></path>
                <path fill="#fbc5a9"
                    d="M2784.48,1534.44,2699,1509.71s-20.93-8.38-30.55,15.48l8.55,36.19,23-11.07L2680.17,1575l5,21.06h31.39l20.09-12.3s.47.39,1.35,1c4.29,3.23,18.22,12.86,34.51,14.85,19.63,2.41,19.63,0,19.63,0l-1.45-12.35Z"
                    class="colorfbc5a9 svgShape"></path>
                <path fill="#f7a18a"
                    d="M2736.62 1585.41a1.62 1.62 0 01-1.08-2.82l13.49-12.23a1.62 1.62 0 012.17 2.4L2737.71 1585A1.62 1.62 0 012736.62 1585.41zM2685.14 1597.7A1.61 1.61 0 012684 1595l40.5-41.57a1.62 1.62 0 112.31 2.26l-40.49 41.56A1.61 1.61 0 012685.14 1597.7zM2672.41 1543.79a1.61 1.61 0 01-.84-3l23-14a1.61 1.61 0 111.68 2.75l-23 14.06A1.59 1.59 0 012672.41 1543.79z"
                    class="colorf7a18a svgShape"></path>
                <path fill="#f7a18a"
                    d="M2768.24,1580.13c-9.07-5.29-24.88-.57-30.27,4.71,4.29,3.23,18.22,12.86,34.51,14.85,19.63,2.41,19.63,0,19.63,0l-1.45-12.35C2784.58,1586.21,2774.76,1583.94,2768.24,1580.13Z"
                    class="colorf7a18a svgShape"></path>
                <path fill="#00184c"
                    d="M2929,890.37c-6.8-35.52-41.27-37.61-41.27-37.61,4.18-27.16-22.47-47.53-63.73-43.36s-51.72-18.28-98.73-24-67.91,39.71-56.94,78.88,56.94,42.84,56.94,42.84l3.65,130.07,114.38,3.14c29.73,0,53.83-22.57,53.83-50.41a47.6,47.6,0,0,0-1.74-12.52C2918.32,954.37,2933.69,914.93,2929,890.37Z"
                    class="color00184c svgShape"></path>
                <path fill="#fbc5a9"
                    d="M2876.76,940.52a32.91,32.91,0,0,0-30.44,20.42c-10-9.15-19-25-19.71-52.28,0,0-38.76,16.85-53.29,2.61-15.14-14.86-14.1-34.48-14.1-34.48s-13.65,28.73-46.68,19.62l-13.21,120.78s-10.74,53.87,52.7,65.56l-6.39,34.74s-4.13,61.34,49.45,63.73c78,3.48,78-63.73,78-63.73l-11.3-114.77a32.9,32.9,0,1,0,15-62.2Z"
                    class="colorfbc5a9 svgShape"></path>
                <path fill="#f7a18a"
                    d="M2826.61 908.66s-38.76 16.85-53.29 2.61c-15.14-14.86-14.1-34.48-14.1-34.48s-13.65 28.73-46.68 19.62c0 0 20.56 15.56 44.24 9.29 0 0 16 32.73 47.38 28.55 0 0 18.16 31.08 42.16 26.69C2836.37 951.79 2827.3 936 2826.61 908.66zM2752 1082.75l-2.85 30.25c76.15-5.66 80.56-72.7 80.56-72.7C2808.32 1091.49 2752 1082.75 2752 1082.75zM2883.1 993.43a2 2 0 01-.92-.22l-24.63-12.15a2.1 2.1 0 01-.05-3.74l34-17.76a2.1 2.1 0 111.94 3.72l-30.3 15.84L2884 989.45a2.1 2.1 0 01-.93 4zM2742.79 1003.81a2.56 2.56 0 01-1-.18L2724 996.79a11 11 0 01-5.46-16.1l22-35.83a2.7 2.7 0 014.6 2.82l-22 35.83a5.67 5.67 0 002.8 8.25l17.84 6.84a2.69 2.69 0 01-1 5.21z"
                    class="colorf7a18a svgShape"></path>
                <path fill="#7c2c19"
                    d="M2746.07,1021.44h-.43a57.66,57.66,0,0,1-15.07-2.11,2.1,2.1,0,0,1,1.23-4c.24.07,24.35,7.25,37.38-6.74a2.1,2.1,0,1,1,3.07,2.86C2766.15,1018,2757.1,1021.44,2746.07,1021.44Z"
                    class="color7c2c19 svgShape"></path>
                <path fill="#00184c"
                    d="M2721.3 932.3c-3.17 0-5.74 3.63-5.74 8.1s2.57 8.1 5.74 8.1 5.75-3.63 5.75-8.1S2724.48 932.3 2721.3 932.3zM2777.86 941c-3.17 0-5.74 3.63-5.74 8.1s2.57 8.09 5.74 8.09 5.75-3.62 5.75-8.09S2781 941 2777.86 941zM2797.85 940.22a5.71 5.71 0 01-4.77-2.56c-8.28-12.53-22-8.68-22.1-8.64a5.71 5.71 0 01-3.22-10.95c7.55-2.22 24.53-2.29 34.84 13.3a5.7 5.7 0 01-4.75 8.85zM2731.18 924.79a5.51 5.51 0 01-1.77-.29 31.08 31.08 0 00-19.26-.13 5.7 5.7 0 01-4.29-10.57 42 42 0 0127.09-.15 5.71 5.71 0 01-1.77 11.14z"
                    class="color00184c svgShape"></path>
                <path fill="#00386e"
                    d="M2744.78,838.14s-22.77,13.91-34.15-2.53,4.64-24,4.64-24-18.13,2.53-19,19.39,14.76,29.94,41.75,22.35c0,0,28.24,31.2,64.08,1.68C2802.12,855,2771.77,874.4,2744.78,838.14Z"
                    class="color00386e svgShape"></path>
                <path fill="#f3888a"
                    d="M2797.69,966.66c-16.19-1.41-29.85,3.55-30.5,11.07s11.93,14.78,28.12,16.19,29.84-3.54,30.5-11.07S2813.87,968.08,2797.69,966.66Z"
                    opacity=".5" class="colorf3888a svgShape"></path>
                <path fill="#eef6f9"
                    d="M2789.66 1000.4a34.31 34.31 0 01-3.91-.23c-19.89-2.33-34-22.14-31.38-44.15s20.88-38 40.76-35.68h0a34.41 34.41 0 0124.18 14.76 43.29 43.29 0 01-6.61 56.32A34.78 34.78 0 012789.66 1000.4zm1.61-76.92c-16.67 0-31.34 14.06-33.56 32.93-2.37 20.17 10.39 38.3 28.43 40.42a31.1 31.1 0 0024.34-7.94 39.92 39.92 0 006.08-51.85 31.07 31.07 0 00-21.83-13.36h0A28.91 28.91 0 002791.27 923.48zM2698.59 989.71a34.14 34.14 0 01-3.9-.23c-19.89-2.34-34-22.15-31.39-44.15a42.21 42.21 0 0113.82-26.93 34.37 34.37 0 0126.94-8.75h0a34.4 34.4 0 0124.19 14.75 43.31 43.31 0 01-6.62 56.32A34.71 34.71 0 012698.59 989.71zm1.58-76.93a31.45 31.45 0 00-20.83 8.14 38.84 38.84 0 00-12.69 24.8c-2.37 20.16 10.38 38.3 28.43 40.41a31.06 31.06 0 0024.33-7.93 39.94 39.94 0 006.09-51.85A31.05 31.05 0 002703.67 913h0A29.48 29.48 0 002700.17 912.78z"
                    class="coloreef6f9 svgShape"></path>
                <path fill="#eef6f9"
                    d="M2757.78 953.6a1.68 1.68 0 01-.93-.28c-.14-.1-14.7-9.68-21.61-2.85a1.68 1.68 0 11-2.36-2.39c8.85-8.75 25.15 2 25.84 2.44a1.68 1.68 0 01-.94 3.08zM2825 957.41a1.68 1.68 0 01-.24-3.34l51.76-7.8a1.68 1.68 0 01.5 3.33l-51.76 7.79A1.14 1.14 0 012825 957.41z"
                    class="coloreef6f9 svgShape"></path>
                <rect width="1829.82" height="65.07" x="1716.37" y="1619.12" fill="#074878"
                    class="color074878 svgShape"></rect>
                <rect width="1698.83" height="65.05" x="1781.86" y="1684.21" fill="#0f3756"
                    class="color0f3756 svgShape"></rect>
                <polygon fill="#074878"
                    points="3363.17 1749.27 3480.55 2662.31 3506.86 2662.31 3430.3 1749.27 3363.17 1749.27"
                    class="color074878 svgShape"></polygon>
                <polygon fill="#0f3756"
                    points="3363.19 1749.28 3371.05 1810.37 3435.4 1810.37 3430.3 1749.28 3363.19 1749.28"
                    class="color0f3756 svgShape"></polygon>
                <polygon fill="#074878"
                    points="1755.7 2662.31 1782.01 2662.31 1899.39 1749.27 1832.26 1749.27 1755.7 2662.31"
                    class="color074878 svgShape"></polygon>
                <polygon fill="#0f3756"
                    points="1827.16 1810.37 1891.51 1810.37 1899.37 1749.28 1832.26 1749.28 1827.16 1810.37"
                    class="color0f3756 svgShape"></polygon>
                <path fill="#ffd900"
                    d="M2833.23,1604.84c-15.44-.72-148.09-8.66-148.09-8.66l-73.68-276a17.35,17.35,0,0,0-16.76-12.87h-385a16.39,16.39,0,0,0-16,19.6l45.75,247.08,4.44,24a25.92,25.92,0,0,0,25.49,21.2h582.49A19.56,19.56,0,0,0,2833.23,1604.84Z"
                    class="colorffd900 svgShape"></path>
                <path fill="#ffed41"
                    d="M2209.66,1307.26a16.39,16.39,0,0,0-16,19.6l45.75,247.08c27.11-3.8,76.09-16.27,143.26-55.92,79.42-46.89,75.58-157.28,68.39-210.76Z"
                    class="colorffed41 svgShape"></path>
                <path fill="#ea6800"
                    d="M2594.7,1307.26h-11c3.12,4.82,6.81,12.35,10.51,24.1,9.28,29.56,71.45,264.82,71.45,264.82h19.52l-73.68-276A17.35,17.35,0,0,0,2594.7,1307.26Z"
                    class="colorea6800 svgShape"></path>
                <ellipse cx="2418.79" cy="1468.78" fill="#ea6800" rx="42.68" ry="53.68"
                    transform="rotate(-9.07 2418.88 1468.809)" class="colorea6800 svgShape"></ellipse>
                <path fill="#8d1b01"
                    d="M1802.45,2163.15l-289.51-86.5-117.67,51.62L1278,2520.83a25.54,25.54,0,0,0,17.16,31.78l358.91,107.23a25.53,25.53,0,0,0,31.78-17.16l133.78-447.74A25.54,25.54,0,0,0,1802.45,2163.15Z"
                    class="color8d1b01 svgShape"></path>
                <path fill="#e3e4e9"
                    d="M1624.41 2365.63l-143.09-42.75a32.36 32.36 0 00-40.26 21.74l-69 231 205.09 61.27 69-231A32.37 32.37 0 001624.41 2365.63zM1497.68 2155.1a38.58 38.58 0 0025.92 48l131.17 39.19a38.58 38.58 0 0048-25.92l22.77-76.21-205.09-61.27z"
                    class="colore3e4e9 svgShape"></path>
                <rect width="118.11" height="12.34" x="1575.25" y="2168.38" fill="#ffffff"
                    transform="rotate(-73.36 1634.486 2174.605)" class="colorfff svgShape"></rect>
                <path fill="#d9dadd"
                    d="M1606.37 2402.59l-130.8-39.08c-8-2.4-16.91.28-19.64 6.86-3 7.38 2.09 15.86 10.89 18.49l132.74 39.66c8.87 2.65 17.89-1.71 19.28-9.66C1620.05 2411.94 1614.28 2405 1606.37 2402.59zM1591.22 2453.29l-130.8-39.08c-8-2.4-16.91.28-19.63 6.86-3.06 7.38 2.08 15.87 10.89 18.49l132.73 39.66c8.87 2.65 17.9-1.71 19.28-9.66C1604.9 2462.64 1599.13 2455.65 1591.22 2453.29zM1576.07 2504l-130.8-39.08c-8-2.4-16.91.28-19.63 6.86-3.06 7.38 2.09 15.87 10.89 18.5l132.73 39.66c8.87 2.65 17.9-1.72 19.29-9.67C1589.75 2513.34 1584 2506.36 1576.07 2504zM1560.92 2554.69l-130.8-39.08c-8-2.4-16.9.28-19.63 6.87-3 7.37 2.09 15.86 10.89 18.49l132.74 39.66c8.87 2.65 17.89-1.71 19.28-9.67C1574.61 2564 1568.84 2557.06 1560.92 2554.69z"
                    class="colord9dadd svgShape"></path>
                <path fill="#c05101"
                    d="M1766.84 2210.25c-7.37-3.05-15.86 2.09-18.49 10.89l-54.55 182.59c-2.65 8.87 1.71 17.89 9.66 19.28 6.92 1.21 13.91-4.56 16.27-12.47l54-180.65C1776.11 2221.85 1773.43 2213 1766.84 2210.25zM1684.05 2487.35c-7.37-3-15.86 2.09-18.49 10.89l-27.49 92c-2.65 8.87 1.71 17.89 9.67 19.28 6.91 1.21 13.9-4.56 16.27-12.48l26.91-90.06C1693.32 2499 1690.63 2490.08 1684.05 2487.35z"
                    class="colorc05101 svgShape"></path>
                <rect width="515.61" height="515.61" x="1245.9" y="1080.05" fill="#1d2289" rx="22.27"
                    class="color1d2289 svgShape"></rect>
                <rect width="416.57" height="416.57" x="1295.42" y="1129.57" fill="#a91730"
                    class="colora91730 svgShape"></rect>
                <rect width="360.56" height="360.56" x="1323.43" y="1157.58" fill="#f15f69"
                    class="colorf15f69 svgShape"></rect>
                <path fill="#1d2289"
                    d="M1327.56 980.05a14.38 14.38 0 00-14.38 14.38v85.62h28.75V994.43A14.38 14.38 0 001327.56 980.05zM1415.63 980.05a14.37 14.37 0 00-14.37 14.38v85.62H1430V994.43A14.37 14.37 0 001415.63 980.05zM1503.71 980.05a14.38 14.38 0 00-14.38 14.38v85.62h28.75V994.43A14.38 14.38 0 001503.71 980.05zM1591.78 980.05a14.37 14.37 0 00-14.37 14.38v85.62h28.74V994.43A14.37 14.37 0 001591.78 980.05zM1679.86 980.05a14.38 14.38 0 00-14.38 14.38v85.62h28.75V994.43A14.38 14.38 0 001679.86 980.05zM1665.48 1681.29a14.38 14.38 0 0028.75 0v-85.63h-28.75zM1577.41 1681.29a14.37 14.37 0 0028.74 0v-85.63h-28.74zM1489.33 1681.29a14.38 14.38 0 0028.75 0v-85.63h-28.75zM1401.26 1681.29a14.37 14.37 0 1028.74 0v-85.63h-28.74zM1313.18 1681.29a14.38 14.38 0 0028.75 0v-85.63h-28.75zM1847.14 1147.33h-85.63v28.75h85.63a14.38 14.38 0 000-28.75zM1847.14 1235.41h-85.63v28.75h85.63a14.38 14.38 0 000-28.75zM1847.14 1323.48h-85.63v28.75h85.63a14.38 14.38 0 000-28.75zM1847.14 1411.56h-85.63v28.75h85.63a14.38 14.38 0 000-28.75zM1847.14 1499.64h-85.63v28.74h85.63a14.37 14.37 0 000-28.74zM1145.9 1514a14.37 14.37 0 0014.37 14.37h85.63v-28.74h-85.63A14.37 14.37 0 001145.9 1514zM1145.9 1425.93a14.38 14.38 0 0014.37 14.38h85.63v-28.75h-85.63A14.38 14.38 0 001145.9 1425.93zM1145.9 1337.86a14.37 14.37 0 0014.37 14.37h85.63v-28.75h-85.63A14.38 14.38 0 001145.9 1337.86zM1145.9 1249.78a14.38 14.38 0 0014.37 14.38h85.63v-28.75h-85.63A14.37 14.37 0 001145.9 1249.78zM1145.9 1161.71a14.37 14.37 0 0014.37 14.37h85.63v-28.75h-85.63A14.38 14.38 0 001145.9 1161.71z"
                    class="color1d2289 svgShape"></path>
                <rect width="28.75" height="20.71" x="1577.41" y="1059.34" fill="#1d2266"
                    class="color1d2266 svgShape"></rect>
                <rect width="28.75" height="20.71" x="1489.33" y="1059.34" fill="#1d2266"
                    class="color1d2266 svgShape"></rect>
                <rect width="28.75" height="20.71" x="1313.18" y="1059.34" fill="#1d2266"
                    class="color1d2266 svgShape"></rect>
                <rect width="28.75" height="20.71" x="1401.26" y="1059.34" fill="#1d2266"
                    class="color1d2266 svgShape"></rect>
                <rect width="20.71" height="28.75" x="1761.51" y="1147.33" fill="#1d2266"
                    class="color1d2266 svgShape"></rect>
                <rect width="20.71" height="28.75" x="1761.51" y="1499.64" fill="#1d2266"
                    class="color1d2266 svgShape"></rect>
                <rect width="20.71" height="28.75" x="1761.51" y="1235.41" fill="#1d2266"
                    class="color1d2266 svgShape"></rect>
                <rect width="20.71" height="28.75" x="1761.51" y="1323.48" fill="#1d2266"
                    class="color1d2266 svgShape"></rect>
                <rect width="20.71" height="28.75" x="1761.51" y="1411.56" fill="#1d2266"
                    class="color1d2266 svgShape"></rect>
                <rect width="28.75" height="20.71" x="1313.18" y="1595.66" fill="#1d2266"
                    class="color1d2266 svgShape"></rect>
                <rect width="20.71" height="28.75" x="1225.19" y="1323.48" fill="#1d2266"
                    class="color1d2266 svgShape"></rect>
                <rect width="20.71" height="28.75" x="1225.19" y="1235.41" fill="#1d2266"
                    class="color1d2266 svgShape"></rect>
                <rect width="20.71" height="28.75" x="1225.19" y="1147.33" fill="#1d2266"
                    class="color1d2266 svgShape"></rect>
                <rect width="20.71" height="28.75" x="1225.19" y="1411.56" fill="#1d2266"
                    class="color1d2266 svgShape"></rect>
                <rect width="20.71" height="28.75" x="1225.19" y="1499.64" fill="#1d2266"
                    class="color1d2266 svgShape"></rect>
                <rect width="28.75" height="20.71" x="1665.48" y="1059.34" fill="#1d2266"
                    class="color1d2266 svgShape"></rect>
                <rect width="28.75" height="20.71" x="1489.33" y="1595.66" fill="#1d2266"
                    class="color1d2266 svgShape"></rect>
                <rect width="28.75" height="20.71" x="1577.41" y="1595.66" fill="#1d2266"
                    class="color1d2266 svgShape"></rect>
                <rect width="28.75" height="20.71" x="1401.26" y="1595.66" fill="#1d2266"
                    class="color1d2266 svgShape"></rect>
                <rect width="28.75" height="20.71" x="1665.48" y="1595.66" fill="#1d2266"
                    class="color1d2266 svgShape"></rect>
                <path fill="#ffffff"
                    d="M2147.15 1100.4H2027.26a2.92 2.92 0 00-2.34 1.18l-64 86.88H1878a2.91 2.91 0 100 5.81h174.31a2.91 2.91 0 100-5.81h-84.17l60.56-82.25h118.42a2.91 2.91 0 000-5.81zM2098.83 1280.22H1878a2.91 2.91 0 100 5.81h220.8a2.91 2.91 0 000-5.81zM2119.62 1429.45H2013l-33.4-56.67a2.9 2.9 0 00-2.51-1.43H1867a2.91 2.91 0 100 5.81h108.43l33.4 56.67a2.92 2.92 0 002.51 1.43h108.26a2.91 2.91 0 000-5.81zM2065.19 1504.07h-162.7a2.91 2.91 0 000 5.81h162.7a2.91 2.91 0 000-5.81z"
                    class="colorfff svgShape"></path>
                <path fill="#ffc535"
                    d="M2161.82 1089.23a14.07 14.07 0 1014.07 14.07A14.06 14.06 0 002161.82 1089.23zM2066.41 1177.3a14.07 14.07 0 1014.07 14.07A14.07 14.07 0 002066.41 1177.3zM2112.89 1268.74a14.07 14.07 0 1014.07 14.07A14.06 14.06 0 002112.89 1268.74z"
                    class="colorffc535 svgShape"></path>
                <circle cx="2079.25" cy="1506.98" r="14.07" fill="#ffc535" class="colorffc535 svgShape">
                </circle>
                <path fill="#ffc535"
                    d="M2133.69,1418.29a14.07,14.07,0,1,0,14.07,14.07A14.07,14.07,0,0,0,2133.69,1418.29Z"
                    class="colorffc535 svgShape"></path>
                <path fill="#ffffff"
                    d="M1130.35 1188.46h-82.94l-64-86.88a2.91 2.91 0 00-2.34-1.18H861.22a2.91 2.91 0 000 5.81H979.65l60.55 82.25H956a2.91 2.91 0 000 5.81h174.32a2.91 2.91 0 000-5.81zM1130.35 1280.22H909.55a2.91 2.91 0 100 5.81h220.8a2.91 2.91 0 000-5.81zM1141.36 1371.35h-110.1a2.92 2.92 0 00-2.51 1.43l-33.4 56.67H888.76a2.91 2.91 0 100 5.81H997a2.9 2.9 0 002.51-1.43l33.4-56.67h108.44a2.91 2.91 0 000-5.81zM1105.88 1504.07H943.18a2.91 2.91 0 000 5.81h162.7a2.91 2.91 0 100-5.81z"
                    class="colorfff svgShape"></path>
                <path fill="#ffc535"
                    d="M846.55 1089.23a14.07 14.07 0 1014.07 14.07A14.07 14.07 0 00846.55 1089.23zM942 1177.3A14.07 14.07 0 10956 1191.37 14.07 14.07 0 00942 1177.3zM895.48 1268.74a14.07 14.07 0 1014.07 14.07A14.07 14.07 0 00895.48 1268.74z"
                    class="colorffc535 svgShape"></path>
                <circle cx="929.12" cy="1506.98" r="14.07" fill="#ffc535"
                    transform="translate(-104.49 69.66)" class="colorffc535 svgShape"></circle>
                <path fill="#ffc535"
                    d="M874.69,1418.29a14.07,14.07,0,1,0,14.06,14.07A14.07,14.07,0,0,0,874.69,1418.29Z"
                    class="colorffc535 svgShape"></path>
                <path fill="#9a60a6"
                    d="M3045.26,425.12c-9.47-27.07-44.69-33.73-63.4-12L2783,644.11c-18.71,21.73-6.88,55.57,21.3,60.9l299.45,56.7c28.18,5.33,51.56-21.84,42.1-48.91Z"
                    class="color9a60a6 svgShape"></path>
                <polygon fill="#ffffff"
                    points="2957.89 575.04 2941.86 591.85 2966.27 596.47 2975.73 598.26 2935.85 675.2 3007.23 596.02 3022.2 579.41 2998.59 574.95 2989.82 573.28 3033.68 495.54 2957.89 575.04"
                    class="colorfff svgShape"></polygon>
                <path fill="#ffffff"
                    d="M1405.57 1240.83c-26.92 0-40.87 16-40.87 43.86v90.72c0 27.91 14 43.86 40.87 43.86s40.87-16 40.87-43.86v-23.18h-25.92v24.92c0 12.46-5.48 16.95-14.21 16.95s-14.2-4.49-14.2-16.95V1283c0-12.46 5.48-17.2 14.2-17.2s14.21 4.74 14.21 17.2v18.69h25.92v-17C1446.44 1256.78 1432.48 1240.83 1405.57 1240.83zM1503.51 1242.82h-40.38v174.46h27.42v-65.55h13c27.41 0 40.87-15.2 40.87-43.11v-22.68C1544.38 1258 1530.92 1242.82 1503.51 1242.82zm13.46 67.54c0 12.46-4.74 16.45-13.46 16.45h-13v-59.06h13c8.72 0 13.46 4 13.46 16.44zM1612.92 1377.4c0 12.46-5.49 16.95-14.21 16.95s-14.21-4.49-14.21-16.95V1242.82h-27.41v132.84c0 27.91 14 43.86 40.87 43.86s40.87-16 40.87-43.86V1242.82h-25.91z"
                    class="colorfff svgShape"></path>
            </g>
        </svg></g>
</svg>